<svg id="Layer_1" data-name="Layer 1" xmlns="http://www.w3.org/2000/svg" viewBox="0 0 150 115"><defs><style>.cls-1,.cls-2,.cls-3,.cls-4,.cls-5{fill:#f8f9fc;}.cls-2,.cls-3,.cls-4,.cls-5{stroke:#bbcedb;}.cls-2{stroke-miterlimit:10;}.cls-3,.cls-5{stroke-miterlimit:10;}.cls-3{stroke-width:2px;}.cls-4{stroke-miterlimit:10;}.cls-6{fill:#58797f;}.cls-7{fill:none;}.cls-8{fill:#8ab6ae;}.cls-9{fill:#55747c;}</style></defs><polygon id="Path-726-Copy-88" class="cls-1" points="52.7 63.64 14.93 73.86 15.54 76.23 53.41 66.04 52.7 63.64"/><polygon id="Path-726-Copy-88-2" data-name="Path-726-Copy-88" class="cls-1" points="136.79 57.98 121.1 96.75 123.49 97.24 139.27 58.41 136.79 57.98"/><polygon id="Path-726-Copy-76" class="cls-1" points="42.29 44.05 55.38 12.47 53.7 11.83 40.6 43.41 42.29 44.05"/><path class="cls-1" d="M80.23,31.55a2.65,2.65,0,0,1-.7,2.14l2,1.93a2.15,2.15,0,0,1,.43.42l0,0a2.54,2.54,0,0,1,1-.18,2.46,2.46,0,0,1,2.24,3.35L102.42,56l.24-2.6Z"/><path class="cls-1" d="M72.71,29.12h.12l-1-.92a2.23,2.23,0,0,1-1.45-1.42L52.74,9.57l-.24,2.6L70.81,30A2.28,2.28,0,0,1,72.71,29.12Z"/><ellipse id="Oval-1-Copy-62" class="cls-2" cx="55.12" cy="11.96" rx="4.3" ry="4.7" transform="translate(14.37 50.96) rotate(-55.99)"/><polygon id="Path-726-Copy-76-2" data-name="Path-726-Copy-76" class="cls-1" points="77.85 60.61 135.63 60 134.38 58.11 76.49 58.7 77.85 60.61"/><polygon id="Path-726-Copy-91" class="cls-1" points="95.68 77.22 119.79 99.48 120.98 97.98 96.85 75.62 95.68 77.22"/><polygon id="Path-726-Copy-103" class="cls-1" points="15.3 45.52 44.52 58.15 45.25 56.46 16.03 43.93 15.3 45.52"/><polygon id="Path-726-Copy-87" class="cls-1" points="19.09 47.44 50.97 46.98 50.25 45.28 18.38 45.74 19.09 47.44"/><polygon id="Path-726-Copy-76-3" data-name="Path-726-Copy-76" class="cls-1" points="90.55 40.56 110.86 13.05 109.37 12.03 89.06 39.54 90.55 40.56"/><polygon id="Path-726-Copy-103-2" data-name="Path-726-Copy-103" class="cls-1" points="21.59 103.8 45.38 82.8 44.65 81.75 20.76 102.74 21.59 103.8"/><polygon id="Path-726-Copy-76-4" data-name="Path-726-Copy-76" class="cls-1" points="108.17 15.25 138.67 55.08 139.15 53.02 108.64 13.19 108.17 15.25"/><ellipse id="Oval-1-Copy-57" class="cls-3" cx="74.82" cy="62.98" rx="42.5" ry="39" transform="translate(-0.1 0.12) rotate(-0.09)"/><ellipse id="Oval-1-Copy-62-2" data-name="Oval-1-Copy-62" class="cls-4" cx="21.63" cy="102.2" rx="2.5" ry="2.3" transform="translate(-74.63 61.6) rotate(-55.18)"/><ellipse id="Oval-1-Copy-73" class="cls-5" cx="16.96" cy="45.89" rx="4.5" ry="5" transform="translate(-29.18 62.16) rotate(-89.15)"/><ellipse id="Oval-1-Copy-73-2" data-name="Oval-1-Copy-73" class="cls-5" cx="109.24" cy="12.03" rx="4.5" ry="5" transform="translate(95.59 121.08) rotate(-89.15)"/><circle class="cls-5" cx="16.77" cy="75.02" r="6.6"/><circle class="cls-5" cx="121.1" cy="99.9" r="4.94"/><path class="cls-6" d="M51.94,73.93h0c.1.11.2.21.3.21V74C52.14,74.14,52,74,51.94,73.93Z"/><path class="cls-6" d="M89.87,44.69l.21-.2a.41.41,0,0,0,.2.11.88.88,0,0,1-.41.09Z"/><path class="cls-7" d="M82.63,52c-.1,0-.11-.11-.12-.19-.21.2-.47.39-.64.56a.34.34,0,0,1,.14.05l.12,0c0-.12.05-.12.18-.1l.06-.16h.09a.26.26,0,0,0,.21,0c.15,0,.17-.06.14-.22a1.1,1.1,0,0,1,0-.18.3.3,0,0,0-.08-.19l-.1.11Z"/><path class="cls-7" d="M83.33,53.3c0,.05,0,.1,0,.19l-.07-.13-.18.07v0a.37.37,0,0,1-.16.3l0-.3-.2.07a.68.68,0,0,1-.16.33c-.06-.07,0-.13,0-.19l0-.06a6.87,6.87,0,0,0-.59.53l.08,0,.48-.21a3,3,0,0,1,.94-.26.38.38,0,0,1,.29.16.38.38,0,0,1,.19.06H84c0-.27,0-.33-.14-.39l0,.23c-.16-.22.07-.46,0-.67,0,0,0,0,0,0v.38c0-.1-.18-.25-.25-.35C83.52,53.22,83.38,53.26,83.33,53.3Z"/><path class="cls-7" d="M80.26,57.84v-.06h0v.09Z"/><path class="cls-7" d="M88,91.67c.14,0,.11,0,.15-.08l0,0Z"/><path class="cls-7" d="M90.35,92.09l0,.13h.17Z"/><path class="cls-7" d="M80.88,54.6c-.1.11,0,0,0,0s-.52.18-.34.32C80.66,54.82,80.77,54.71,80.88,54.6Z"/><path class="cls-7" d="M96.61,92.17c0-.07,0-.15,0-.22a.1.1,0,0,0-.06-.09.08.08,0,0,0-.1,0,.54.54,0,0,0-.2.36C96.35,92.1,96.49,92.19,96.61,92.17Z"/><path class="cls-7" d="M81.79,58.39a.11.11,0,0,0,0,.06.39.39,0,0,1,.1.08l0-.18Z"/><path class="cls-7" d="M96,64.72c-.09,0-.22,0-.23.2s.06.13.18.13c0,.07-.08.14-.11.14a.24.24,0,0,1-.13-.09.39.39,0,0,1-.07-.16s-.1,0-.1.07a.5.5,0,0,0,.11.39c.11,0,.15-.2.29-.14s0,0,0,0,.13-.2.19-.3C96.05,64.94,96.05,64.81,96,64.72Z"/><path class="cls-7" d="M81,59.31c.15.06.27,0,.42,0a.39.39,0,0,0,.08-.1l0,0C81.32,59.23,81.11,59.1,81,59.31Z"/><path class="cls-7" d="M83.07,55.66a2.2,2.2,0,0,1,0-.36l-.28.38A.93.93,0,0,1,83.07,55.66Z"/><path class="cls-7" d="M97.85,82.61a1.26,1.26,0,0,1-.33-.4l-.1-.11c0,.05,0,.09,0,.11a3.15,3.15,0,0,0,.22.29.65.65,0,0,1,.21.61l0,0a1.21,1.21,0,0,0,0-.46S97.87,82.63,97.85,82.61Z"/><path class="cls-7" d="M82.27,58.25l.12-.14v0l-.14.08A.65.65,0,0,0,82.27,58.25Z"/><path class="cls-8" d="M91.76,93.5h-.57l0,0h.35a.73.73,0,0,1,.2,0h.08C91.89,93.53,91.82,93.5,91.76,93.5Z"/><polygon class="cls-8" points="87.59 42.13 87.59 42.12 87.58 42.12 87.58 42.13 87.59 42.13"/><polygon class="cls-8" points="97.65 54.37 97.65 54.37 97.65 54.37 97.65 54.37"/><polygon class="cls-8" points="96.19 64.92 96.2 64.92 96.2 64.91 96.19 64.91 96.19 64.92"/><polygon class="cls-8" points="91.1 48.03 91.11 48.03 91.11 48.03 91.11 48.03 91.1 48.03"/><path class="cls-8" d="M83,53.46v0l-.13,0,0,.3A.37.37,0,0,0,83,53.46Z"/><path class="cls-8" d="M83.33,53.3a.27.27,0,0,1-.1.06l.07.13C83.31,53.4,83.32,53.35,83.33,53.3Z"/><path class="cls-8" d="M82.56,53.86a.68.68,0,0,0,.16-.33l-.06,0-.07,0,0,.06C82.55,53.73,82.5,53.79,82.56,53.86Z"/><path class="cls-8" d="M82,52.42a.34.34,0,0,0-.14-.05l-.06.06Z"/><path class="cls-8" d="M81.87,54.28l.21-.11-.08,0Z"/><path class="cls-8" d="M82.63,52l0-.29-.1.1C82.52,51.89,82.53,52,82.63,52Z"/><path class="cls-8" d="M88.51,85.14c-.15.35-.41.16-.65.12,0,.16,0,.31,0,.47a1.62,1.62,0,0,1,0,.22c0,.27,0,.55,0,.82,0,.11,0,.22,0,.33q0,.51,0,1c0,.36,0,.71-.08,1.06a3.42,3.42,0,0,1-.49,1.29.38.38,0,0,1-.09.09c0-.16,0-.36-.24-.38l-.09-.44q-.09,0-.09.09c0,.13,0,.26,0,.39,0,.29,0,.57,0,.86,0,.13,0,.16-.22.16,0-.07,0-.14-.1-.17a.22.22,0,0,0-.21,0c-.08,0-.17.08-.27.13,0-.15-.12-.27,0-.42-.33,0-.3-.23-.36-.44-.13.14-.09.29-.11.44s.21.08.26.16a1,1,0,0,1,.06.31s0,0,0,0l0,0-.15-.1,0,.15-.31.1a3.78,3.78,0,0,0-.56.21,2.22,2.22,0,0,1-1,.28.14.14,0,0,0-.13.06,1.28,1.28,0,0,0-.1.26,2.12,2.12,0,0,1,.83-.21.51.51,0,0,0,.42-.17,1,1,0,0,1,.32-.17c.06,0,.14-.08.18-.06s.26,0,.38,0c.13.19.09.45.3.58l-.13-.64a.34.34,0,0,1,.18.24c0,.13,0,.26.08.38s.06.14.16.08l-.1-.56c.18,0,0,.2.17.2l.08-.24c.16,0,.16,0,.17-.19s0-.19.2-.22l0,.23.28.14.29.09c0,.11-.09.11-.18.08a.29.29,0,0,0-.37.13l.84.06v0l-.16-.1,0-.05a.24.24,0,0,1,.35-.11.25.25,0,0,0,.17,0,.77.77,0,0,1,.45,0,.24.24,0,0,1,.2.15.11.11,0,0,1,0,.05l-.16,0a2.32,2.32,0,0,0,.47.24l.58.2a.48.48,0,0,0,.24,0,1.44,1.44,0,0,1,.62,0c.15,0,.3,0,.45,0s.43-.07.63,0a.11.11,0,0,0,.08,0,.29.29,0,0,1,.27,0c.34.09.68,0,1,.12l.12,0a.08.08,0,0,0-.05-.06,4.14,4.14,0,0,0-1-.13.2.2,0,0,1-.21-.13l1,.15s0,0,.09-.05l-.13-.06c-.21-.05-.42-.11-.64-.14a8.65,8.65,0,0,0-.89-.09,1.17,1.17,0,0,1-.72-.28,1.29,1.29,0,0,1-.33-.37,3.68,3.68,0,0,1-.55-1.29c0-.14-.07-.27-.09-.4s-.07-.23,0-.32a.65.65,0,0,0,0-.34,1.54,1.54,0,0,1,0-.3c0-1,0-2,0-3a1.87,1.87,0,0,1-.3,0C88.76,85.61,88.85,85.51,88.51,85.14ZM88,91.67l.12-.11,0,0S88.12,91.71,88,91.67Zm2.37.42.13.12h-.17Z"/><path class="cls-8" d="M104.5,79.79s.12-.07.12-.16-.17.08-.26.07l0-.18c-.14,0-.22,0-.31.12s-.12-.06-.15,0-.32.06-.47.13l-.13,0-.27.13a.47.47,0,0,0-.1.1c-.15-.09-.29,0-.45,0l.35-.36-.06,0h-.06a1.65,1.65,0,0,1-.58.32,1.89,1.89,0,0,0-.3.19s-.08,0-.09,0-.18,0-.26,0l-.17.13,0,0c.09-.15.3-.24.27-.46-.2,0-.23.28-.4.38a.48.48,0,0,0-.45,0c-.08.06.38.11-.41.18v-.16c0,.08-.13.16-.28.25.06-.24.41-.3.4-.55-.13,0-.11.1-.18.15s-.08.08-.1.07-.22,0-.3.09a.38.38,0,0,1-.31.09.32.32,0,0,0,.13-.3c0-.19,0-.37,0-.55s0-.16.1-.17c.13.17,0,.37.11.56,0-.05.11-.08.12-.12s0-.16,0-.19a.32.32,0,0,1,0-.3l.18-.11c0,.13,0,.28.08.39a.48.48,0,0,0,.17-.23c0-.1.07-.15.17-.07s.07,0,.09,0a2,2,0,0,0,.3-.2c.07-.06.05-.1,0-.16a1.36,1.36,0,0,1-.12-.12l-.17.12,0-.13-.27.1,0,0,.29-.32a.27.27,0,0,0-.23.08l-.46.35a.16.16,0,0,1-.11.05h-.41c0-.18.14-.26.24-.36s-.12-.26,0-.39l0,.24s.09,0,.1,0l.71-.67a.77.77,0,0,0,.28-.09.22.22,0,0,1,.19-.06s.07,0,.12,0l-.18-.14-.2.21s-.07-.1-.11-.1-.1,0-.12-.06.14-.19.06-.34a1.43,1.43,0,0,0-.27.19,1.94,1.94,0,0,0-.26.31c0,.06-.09.13-.18.1s.2-.09.17-.27l-.25.07c-.13-.09-.18-.09-.3,0s-.09.13-.14.2l-.13.16c-.06-.17-.15-.13-.24-.08l-.22.11,0,0,.18-.24c-.25,0-.26.26-.45.3,0-.15.16-.25.13-.42-.2.15-.37.32-.55.47C98,78,97.91,78,97.76,78a.51.51,0,0,1-.17,0c-.09,0-.15,0-.22.06a3.11,3.11,0,0,1-.38.25.52.52,0,0,1-.25,0s0-.06-.07-.1a.19.19,0,0,1,.1,0,.77.77,0,0,0,.48-.2s0-.08,0-.11c-.15-.1-.27,0-.4,0a.75.75,0,0,1,0-.56c.07,0,.1.19.23.12l-.07-1c.17.07.18.21.19.34s0,.22,0,.33,0,0,.06.07h0v-.49h0a.91.91,0,0,1,.07.14c0,.06,0,.15.11.14l.05-.46.14-.08a1.37,1.37,0,0,0,0,.23c0,.07,0,.16.11.19.08-.29-.06-.56,0-.85.11,0,.16.09.16.2a1.08,1.08,0,0,0,0,.31.89.89,0,0,0,.08.47c.11-.17,0-.35.06-.51.11,0,.11.12.11.2s0,.27,0,.41,0,.27,0,.41.08.09.15,0a1.85,1.85,0,0,1,0-.85s.07.05.08.08a1,1,0,0,1,.11.43,1.27,1.27,0,0,0,0,.26c0,.06.07.09.12.06s0-.07,0-.11,0-.05,0-.08a.41.41,0,0,1,.07-.46c.06.18,0,.38.13.54.13-.06.13-.06.11-.13s0-.09,0-.13c0-.35,0-.69,0-1,.1.08.1.08.1.19s0,.39,0,.58,0,.26.1.35c.1-.08.1-.08.09-.18s-.05-.41-.06-.62.06-.14.09-.2l.19.07c.12-.2-.06-.42.07-.63,0,0,.06,0,.07.08s0,.13,0,.2.16.22.29.23-.52.31.26.42v-.85a.52.52,0,0,1,.09.22,1.63,1.63,0,0,0,0,.31s0,0,0,.07,0,0,0,0v-.52s.09,0,.1,0,.09.06.1.09,0,.15,0,.23,0,.09,0,.13h.06a6.52,6.52,0,0,0,0-.77c.1,0,.23,0,.22.13s.21.26.21.38v-.46s0,.19.12.09-.15-.25-.07-.39c.15.25.13.25.27.19l-.16-.27h.11a1.1,1.1,0,0,0,.58.18s.07,0,.11,0l.16.05c0-.08,0-.16-.06-.17s-.21-.23-.38-.12l-.09-.22s-.05,0-.05.06,0,.11-.11.1-.14,0-.09-.12l-.06,0-.17-.06,0-.13-.48,0c-.14,0-.27.11-.41,0s0,0-.07,0H100l-.27.07a.56.56,0,0,1-.16,0l.25-.11,0,0-.28,0,.05-.17a1.85,1.85,0,0,0-.23,0l-.32.1a1.07,1.07,0,0,1-.55.08c0-.13,0-.25,0-.37s0-.14.14-.11l.07.18c.07-.06-.08-.22.07-.18a.48.48,0,0,1,0,.21v-.22s.2-.08.26-.12.1.2.12.3c.13-.11.06-.25.09-.39l.19,0,.06.28c.09,0,.13-.08.1-.16s-.24-.16-.15-.24.12.06.11,0V73.4c.79,0,.3.13.32.21s.11.17.13.26.1,0,.17.09c0-.21,0-.37,0-.55l.15,0c.07.12,0,.26.12.4,0-.14,0-.25,0-.35s0-.11.1-.08,0,.24.09.32.05-.16.05-.24,0-.21.15-.28,0,.16.15.13l0-.41a1.58,1.58,0,0,0,.69-.33l-.2,0c-.08,0-.21,0-.24,0s-.17-.06-.25,0a.56.56,0,0,1-.17.06l0-.18-.4.14,0-.22-.51.3a.17.17,0,0,1,0-.13s.08,0,.12-.07l0-.06-.26.14c0-.12-.1-.1-.17,0s-.13.11-.23.07l0-.18-.48.28,0,0,.1-.15c-.08,0-.12,0-.17,0s-.08.07-.1.06-.2,0-.29,0-.14,0-.15-.08,0-.18,0-.26l.27-.11.1.16c.09,0,.08-.09.06-.15a1.09,1.09,0,0,1,0-.17s0-.06.07-.12l.09.41c.16-.08.15-.08.1-.2a.69.69,0,0,1,0-.2c0-.1,0-.15.15-.13s0,.23.2.18l0-.26.22.12c0-.13-.08-.25,0-.35.13.29.13.29.22.27s-.14-.24,0-.38c.09,0,0,.2.18.19l0-.19c.08.13.12.25.27.22l0-.34a1.84,1.84,0,0,0,.25.19,2.66,2.66,0,0,0,.33.08,1.06,1.06,0,0,1-.1-.17.87.87,0,0,1-.07-.17l.19-.06c.09.26.22.37.39.34l-.32-.39.16-.15c-.13,0-.25.1-.35,0v-.18l-.27.19h-.06l.06-.2-.33.13-.11-.16-.21.06-.14-.14-.46.4c0-.13-.09-.16-.18-.1l-.37.22c0-.06,0-.1,0-.12L98.43,71a.14.14,0,0,1,0-.2l.28-.14c-.06-.14-.06-.14,0-.2s.1.08.14.08,0-.1,0-.16,0,0,0,0,.19,0,.25.09.16-.09.1-.19,0-.16.06-.26a2.81,2.81,0,0,0,.08.29s0,.13.09.14a.21.21,0,0,1,.12.2.52.52,0,0,0,.07.12c.14-.09.12-.21.08-.34l.13.07.08-.17.12,0c0-.09,0-.16,0-.22s0-.16.09-.17a1.18,1.18,0,0,0,0,.21s0,.06.08.09a.31.31,0,0,0,0-.12,1,1,0,0,0,0-.18.32.32,0,0,1,.36,0c0,.11.07.2.22.2s.22.1.32,0l-.26-.13.1-.16h-.43s-.13,0-.13-.06,0-.09.06-.13.14-.06.12-.18l-.23.05c0-.16.22-.19.13-.37-.26.1-.39.38-.65.51l.08-.19,0,0-.26.2c0-.17.17-.26.11-.41-.26,0-.39.24-.56.4l-.09-.25c-.1.07-.18.11-.25.17s-.12.15-.2.2a.75.75,0,0,1-.27.13c-.06,0-.13,0-.21,0v-.67a.22.22,0,0,1,.15-.19,3,3,0,0,0,0,.3c0,.09,0,.19.08.26,0-.19-.06-.42.15-.55a2.07,2.07,0,0,0,0,.5.37.37,0,0,0,.07-.14,2.19,2.19,0,0,0,0-.51.32.32,0,0,1,.1-.27c0,.16,0,.33,0,.49.11-.19.06-.43.17-.66l.13.3c.1-.11,0-.31.21-.32l0,.16h0l.08-.18.25.07a2.62,2.62,0,0,0,0,.28c0,.08,0,.2.11.23,0-.18,0-.36.06-.52.09,0,.11,0,.12.12v.21c0,.06,0,.12.09.13l.07-.17.1.19a.26.26,0,0,0,0-.11.56.56,0,0,1,0-.13s0-.13.09-.14.09,0,.11.11h0c0-.17,0-.17.18-.21s.07.31.28.24l0-.16c.12,0,.26,0,.33-.13-.21,0-.16-.2-.25-.31l-.35.17a1.18,1.18,0,0,0-.13-.18c-.1-.09,0-.15,0-.24a.28.28,0,0,1-.11,0c-.11-.09-.18,0-.26,0a1.12,1.12,0,0,1-.51.26l.29-.4,0,0-.19.07,0-.16-.6.32c-.13,0,0-.17-.12-.25-.23.09-.29.4-.56.45a.87.87,0,0,0,.09-.36.84.84,0,0,0-.16-.31c.1-.08.18,0,.28.06l.22-.25c.24.14.34.13.43,0-.13.08-.21,0-.29-.06s0-.2,0-.32c-.26.09-.37.36-.64.42l.08-.19-.29.14a.7.7,0,0,1,.13-.19s.1-.08,0-.15-.1,0-.15,0a.24.24,0,0,0-.08.06l-.42.32L97.74,67l-.2.12,0,0,.15-.22c-.09,0-.15,0-.2,0l-.53.26-.12.07,0-.22c-.24,0-.37.25-.63.2l.19-.21-.27-.16-.45.38c0-.12.15-.12.1-.25l-.26.15-.06-.31c0-.1-.06-.2.09-.27l.06.33c.13-.13,0-.3.09-.43s.11,0,.13.09.08.11.17.06a.14.14,0,0,1,0-.06s0-.06,0-.1.07,0,.1,0,.07.1.11.15a.72.72,0,0,0,0-.35,2.82,2.82,0,0,0-.07-.31l-.16,0c.19-.2.32.09.5,0a2.83,2.83,0,0,0,0,.77.17.17,0,0,0,.12-.23,1.63,1.63,0,0,1,0-.54c.1,0,.19-.06.26,0s0,.23,0,.34,0,.17.08.15.07-.1.06-.17,0,0,0-.08,0-.23,0-.27,0-.13,0-.18.14,0,.15,0,0,.26,0,.39h.05a.44.44,0,0,0,0-.15,2.51,2.51,0,0,0,0-.27c0-.12,0-.13.15-.15l.08.39c.15-.06.19-.12.11-.24a.23.23,0,0,1,0-.22c.06,0,.12,0,.18-.08s0,0,0,0h-.18s-.31-.25.47-.23v.18c0-.16-.07-.32-.07-.48s0-.22.17-.24c.07.16,0,.34.08.5,0,0,.07,0,.07-.08a.65.65,0,0,0,0-.24c0-.18,0-.35-.06-.53s0-.13.15-.1,0,.14,0,.21a.9.9,0,0,0,0,.16s0,0,.07.08.07-.06.07-.09a1.31,1.31,0,0,0,0-.28c0-.08,0-.16,0-.24l.07,0,.07.13c.13,0,.13-.08.16-.17s-.06-.09-.08-.14.05-.11.16-.12a.19.19,0,0,0,.09,0c.07-.07.13-.15.19-.22l-.23-.17c0-.06.06-.11.1-.2s-.15.05-.21,0-.11,0-.15.07l-.36.45-.06,0,0,0,.09-.18c-.25,0-.31.24-.39.46-.09-.17.12-.3,0-.45a1.2,1.2,0,0,0-.46.54,1.53,1.53,0,0,1-.53.62c-.09,0-.18-.08-.22-.05s-.18,0-.28,0a.27.27,0,0,0,0,.16c.07.13.06.16-.08.2s-.07-.14-.11-.13V64.6h0c-.06.8-.12.36-.19.46s0,.12,0,.12-.18.15-.29.18a.46.46,0,0,1-.11-.37s.06,0,.1-.06a.39.39,0,0,0,.07.16.2.2,0,0,0,.13.09s.06-.07.11-.13c-.12,0-.19,0-.18-.14s.14-.14.23-.19,0,.22.17.2h0l.1-.2-.15,0v-.19l-.42.13s0,0,0,0-.14.14-.26.08-.08,0-.11,0c-.24-.13-.16-.35-.17-.54l.18-.13.1.52c.17-.19,0-.4,0-.61l.17,0c.11.13,0,.34.22.43L95.79,64c.18,0,.14.1.18.17s.07.11.12.12.08-.06.15-.12c-.16,0-.2-.12-.15-.25l.2-.11.06.22.22-.27c.13.28.18.3.33.13-.16,0-.16,0-.23-.31a2.1,2.1,0,0,1,.3-.22.88.88,0,0,0,.46-.32s.14,0,.11-.17a1,1,0,0,0-.34.22s-.13.1-.14.09-.18,0-.27,0-.13-.1-.23,0-.12.11-.17.1-.24.09-.33.18-.09.09-.13.09a2.63,2.63,0,0,1-.49,0l.13-.1.13-.07a1.13,1.13,0,0,1-.15-.66l.14.23a.5.5,0,0,0,0-.16,2,2,0,0,0,0-.24c0-.13,0-.2.14-.27l.11.39h0l0-.26c.18,0,.1.24.18.33s.09-.08.07-.14,0-.17.08-.2l.2.13c0-.22.12-.38.26-.51.07.07-.47.21.31.24v-.39c0,.16-.07.35,0,.48.09-.19-.14-.38,0-.6,0,.1,0,.16.07.21l0,0,0-.14c0-.15,0-.16.14-.15s.16,0,.12-.17,0-.23.13-.26l.11,0a.1.1,0,0,0,0-.05l-.09-.11c.16-.19.43-.27.52-.55-.18,0-.27.2-.44.21l-.08-.09-.1.07c-.09.05-.18.14-.27.15a.43.43,0,0,0-.29.13.21.21,0,0,1-.31,0,.12.12,0,0,0-.18,0c-.09.11-.2.2-.3.3l-.2.15s0,0-.06-.05-.11-.13-.24-.06l-.17.1a1,1,0,0,1-.08-.57.66.66,0,0,1,.08-.13c.11.16,0,.36.21.53,0-.1,0-.16,0-.22s0-.27-.07-.4a.14.14,0,0,1,.1-.19l.13.31c.17-.05,0-.19.09-.26.19.16.18.17.32,0l.11.16c.14-.07,0-.29.17-.31s0,.21.13.26c.1-.14-.08-.3,0-.47,0,.07.05.12.08.16s.09.09.12.08a.12.12,0,0,0,.11-.15.53.53,0,0,1,0-.13c.15.07.21.07.24,0a.55.55,0,0,1,.27-.31s.06-.07.1-.1l.09-.09h0l0,.27c.18-.09.19-.11.06-.44l-.18.12,0-.12c-.17.2-.35.33-.58.17l-.28.13c-.07,0-.13.12-.23,0s-.07,0-.1,0l-.27.19a1,1,0,0,0,.26-.59,1,1,0,0,0,.21-.11,2.17,2.17,0,0,0,.32-.36.5.5,0,0,1,.22-.16.65.65,0,0,0,.29-.32s0-.08,0-.13l-.09,0a2.26,2.26,0,0,1-.2.13c-.13.07-.19,0-.22-.11a.61.61,0,0,0,0-.12c-.22.07-.27.12-.26.32s0,.12-.12.14l-.11-.14-.38,0a.75.75,0,0,1-.24.15.73.73,0,0,1-.28,0,.65.65,0,0,1,.31-.28.8.8,0,0,0,.19-.13s0-.06,0-.15a.52.52,0,0,1-.36.29c-.09-.15.05-.22.14-.35-.09,0-.15.07-.18.05s-.12-.07-.19,0h0a.53.53,0,0,0-.4.12.27.27,0,0,1-.36,0c-.11.11-.11.11-.3.06l0-.16c0-.06,0-.11,0-.17-.17,0-.18.16-.32.2A.6.6,0,0,0,94,58a.35.35,0,0,1,0-.06c-.16-.08-.08-.23-.11-.35s0-.11.11-.13l.09.28h0a.84.84,0,0,1,0-.32.46.46,0,0,0,.06-.34s0,0,0-.06a.13.13,0,0,1,.13-.16c.06.13,0,.3.19.43,0-.12,0-.2,0-.28s0-.14.13-.12c.11.19,0,.45.2.63l0-.51.17.32c.16,0,.11.19.22.25s.12-.08.07-.18-.07-.2-.1-.3c.29-.09.29-.09.29-.22-.1.05-.2.09-.26,0l.12-.32.16,0,.2.27c.19-.07-.08-.21.07-.28l.14.1c0-.15-.1-.29,0-.41s.13,0,.17,0,0-.11,0-.16,0-.12,0-.16h0s.09,0,.12,0,0-.09,0-.14a1.91,1.91,0,0,1-.06-.21c.09,0,.16,0,.2,0a.2.2,0,0,0,.22,0,1.08,1.08,0,0,0,.2-.16.37.37,0,0,1,.42-.16c.11.06.2,0,.3,0s0-.06,0-.09,0-.06-.06-.06a.58.58,0,0,0-.19,0l0-.18a.54.54,0,0,0,.47-.27l-.22.09.05-.24-.38.05-.13-.11c-.07.08-.12.18-.2.22a1.12,1.12,0,0,1-.42.15.62.62,0,0,0-.37.26,1.77,1.77,0,0,1-.12.17l-.11.06c0-.19.2-.27.21-.49l-.5.47L95.55,55a1.92,1.92,0,0,1-.51.36c-.13-.1,0-.17,0-.24-.18-.26-.18-.3.06-.39,0,0,0,.05,0,.07s.09.17.22.07a.33.33,0,0,1,.1-.06,2.71,2.71,0,0,1,.49-.22s0,0,.06,0a1.17,1.17,0,0,1,.34-.36.11.11,0,0,0,0-.17c-.12.08-.32.16-.41.23l-.43-.05v-.27c0,.17-.3.33-.49.5a1.81,1.81,0,0,1,0-.23c-.1.07-.17.18-.26.18s-.22.13-.31.23l-.08.07c0-.11.14-.14.07-.26-.14,0-.23.31-.43.13l-.17.17a.53.53,0,0,0-.08-.26,1.9,1.9,0,0,1-.11-.39c0-.15,0-.16.16-.16s.08.3.23.39c.1-.14-.11-.21,0-.35l.1,0c.06.11,0,.25.19.32l.09-.22c-.17-.1-.17-.12,0-.23l.13.1.12-.38c.11,0,.21,0,.25,0s.16,0,.25,0l.08-.09c0-.08.1-.1.14-.06s.11,0,.18,0a.82.82,0,0,0,.31-.25s-.09-.1-.13-.1a1.38,1.38,0,0,0-.27.08l-.12-.15-.25.21c-.13-.06-.17-.18-.18-.35l-.2.16a.69.69,0,0,0-.16.18c0,.1-.14,0-.21.06a1.55,1.55,0,0,1-.28.12c0-.13-.09-.24-.12-.35s0-.19.19-.22l.05.27c.14-.09,0-.21.07-.3l.1,0a.5.5,0,0,1,0-.14h.2s0,.09,0,.14,0,0,.08,0a.18.18,0,0,0,0-.09.53.53,0,0,0,0-.12c0-.07,0-.13.08-.14s.07.18.19.13-.13-.24.06-.31,0,.23.21.29c0-.11,0-.19,0-.27s0-.16.09-.17c.07.25.07.25.18.23l0-.33h0l.08.11.45-.56a1.47,1.47,0,0,0-.72.3c-.18.14-.24.12-.34-.09s-.08-.17.06-.27l.13.08a.75.75,0,0,0,.06-.13.85.85,0,0,0,0-.16l.35,0L95.43,51c-.22-.09-.34.08-.49.18-.07-.12-.17-.06-.25,0s0,.25-.18.21l.14-.27a.27.27,0,0,0-.34.07c-.06.07-.11.17-.23.14a.2.2,0,0,0-.21.09l-.15.12-.17-.06c0-.09-.06-.18-.08-.26s0-.16.12-.25c.07.12,0,.3.15.4l.05,0c0-.18-.07-.36-.11-.55s.21-.15.34-.2l.08.25c.15-.06.05-.17.07-.21s.1.07.14.06,0-.09,0-.14,0,0,0-.07c0,.23.19.27.37.26A.28.28,0,0,0,95,51c.09-.15-.14-.39.13-.47,0-.12,0-.12.05-.22l.33-.34a.1.1,0,0,0,0-.15h0c-.11.08-.2.2-.36.13S95,50,95,50l-.09.08-.08-.2-.18.23L94.55,50c-.13.17-.33.07-.45.19C94,50.1,94,50,94,50a1,1,0,0,0-.25.06c-.11,0-.23.12-.33.1a.29.29,0,0,0-.31.13l-.11.12a1.1,1.1,0,0,0-.14-.09h-.16l-.07,0s-.12,0-.16,0-.06.09-.08.13-.15,0-.19,0a.35.35,0,0,1-.37,0l-.16.2a.5.5,0,0,1,0-.15c0-.15,0-.17.14-.18s.09,0,.13-.06h.05l.08.17c.08-.19,0-.36,0-.53l.16-.1a.34.34,0,0,1-.11-.28c0-.19,0-.19.14-.23s0,.15.07.23,0,.1.06.09.15.08.2.14.15,0,.09-.15-.07-.15.09-.18c.13.28.14.31.2.32s-.12-.28,0-.42c.07.16,0,.34.14.5.14-.17,0-.35,0-.49l.11.13c.1-.1,0-.24.07-.33.06.24.06.24.16.25-.06-.29-.06-.29.06-.38l.1.36c.08,0,.12-.07.08-.16s-.06-.22-.1-.37c.22.08.12.29.25.4,0,0,0-.08,0-.12a1.13,1.13,0,0,0,0-.18l0,0L94,49a.14.14,0,0,0,.09-.22c0-.08-.1-.16,0-.27l.14.07c.08-.13,0-.3.16-.4a2.22,2.22,0,0,0,.3-.31l-.16-.14c0,.17-.22,0-.26.18h0c-.11-.06-.18,0-.26.06s-.1.06-.12,0-.16,0-.24.05-.07,0-.11,0a.69.69,0,0,0-.15.07c-.06,0-.1.11-.16.16s-.2.17-.35.1a.14.14,0,0,0-.19.06.44.44,0,0,1-.23.18l-.31.12c0-.06-.07-.14-.11-.15a.25.25,0,0,0-.17.07c0,.05-.07.11-.11.17s-.08.14-.14.17a1.17,1.17,0,0,1-.27,0l-.07-.18L91,49a.2.2,0,0,1,0-.12s.06-.09,0-.12,0-.11.12-.14,0,.06,0,.08a.9.9,0,0,0,0,.09c.1-.09.07-.19.07-.28s0-.15.07-.17c.23-.06.39-.29.65-.28h0c.1-.05.14-.15.07-.23s-.1-.06-.13,0,0,.06,0,.1-.19.05-.31.09l0-.1c-.16.05-.41.09-.51.12s-.24,0-.24-.06H91c-.07,0-.08.08-.16.12-.18-.16-.14-.22.06-.41,0,.13.07.26.22.29h0a2.87,2.87,0,0,1,0-.31c0-.12-.06-.24,0-.35,0,.12,0,.22.05.35.23-.1,0-.28.1-.4l.1.2.42-.21c0-.09,0-.2.12-.21l.12.17.16-.08.1.15.12-.15c0-.09-.16-.17,0-.27a1.56,1.56,0,0,0,0,.16c.06.15.11.17.23.07s.06-.06.08,0,.17,0,.24-.12l.1-.11c0,.11.07.16.14.11s0-.17,0-.25a.17.17,0,0,0,0-.1.13.13,0,0,0-.1,0,.63.63,0,0,0-.12.1l-.21-.11.06-.14,0,0-.19.14,0-.13-.28.14-.21-.19-.51.27c-.1-.09-.27-.1-.27-.32l-.07.09c-.15.26-.22.29-.49.25l0,0,0-.1c.07,0,.15,0,.18,0s.21-.17.24-.32a.13.13,0,0,1,.1-.06s.07.06.09.1a.59.59,0,0,1,0,.14l.06.06,0,0a.11.11,0,0,0,0-.05.48.48,0,0,1,.32-.59s0,0,0,0,.14-.37.32-.46l.13.08c0-.12,0-.23,0-.33s.07-.2.11-.3c-.23-.05-.25.19-.38.25L92,45a.85.85,0,0,1-.14.21,3.61,3.61,0,0,1-.3.25c0-.06.16-.13.16-.2s-.07.05-.07.08v.18H91.4c0-.05-.15-.11-.17-.13l-.36-.09-.36.2c0-.11,0-.18,0-.24s0-.15.06-.2l.07.2h0c0-.12,0-.25,0-.38h0l.06.11c.18-.09.2-.24.16-.43a.55.55,0,0,1,0-.18h0l.07.21c0-.1,0-.22.07-.26s.07-.19.08-.29,0-.2,0-.3,0,0,0,0,.12-.24.12-.37a.13.13,0,0,0-.11-.13c-.07.14-.13.27-.2.4l-.34.57s0,0-.06.06l-.43.22-.06-.12c.22,0,.11-.16.14-.25a.41.41,0,0,0,.12-.19l.12,0a.94.94,0,0,1,.28-.51,3,3,0,0,1,.08-.35c0-.15,0-.21-.17-.26a1.05,1.05,0,0,1-.17.29.17.17,0,0,0,0,.25c-.08,0-.15,0-.19.07s-.27.23-.37.37-.27.2-.42.3l-.11-.29a1.46,1.46,0,0,1,.51-.51l.07.05.29-.32-.13-.12c-.11.08-.2.23-.34.08a.52.52,0,0,1-.36.18l-.06-.18a.19.19,0,0,0,.15-.21s0-.06.05-.09.07-.08.06-.12a4.73,4.73,0,0,0,0-.52s0,0-.06,0v0l.15,0,.08.42h0a5.84,5.84,0,0,0,0-.93l.12.06c.09-.16-.07-.29,0-.45a.47.47,0,0,0-.24.28.71.71,0,0,1-.29.39.34.34,0,0,0-.12.12.29.29,0,0,1-.25.15c-.07.2-.13.28-.19.23L89,42l-.13,0c0-.07,0-.18.06-.21s.09-.25.1-.38,0-.22,0-.3a.19.19,0,0,0,0-.18A1.24,1.24,0,0,0,89,40.7c0-.07.1-.15.09-.16a.61.61,0,0,0-.17-.14l-.31.59-.22.13c-.08,0-.08-.12,0-.21a.15.15,0,0,0,0-.19.1.1,0,0,1,0-.09.86.86,0,0,0-.14-.51c-.06,0-.14,0-.19,0a.63.63,0,0,0-.13.45,3.58,3.58,0,0,1,.09.35c0,.07,0,.07-.09.05,0-.21,0-.26-.27-.32a.76.76,0,0,0-.06.16,3.11,3.11,0,0,0,0,.32.36.36,0,0,0,.07.3s0,.13,0,.2l0,.32v.15h0l.14-.07a.61.61,0,0,1,0,.4c0-.13,0-.23,0-.33h0s-.16.06-.19.05a1.66,1.66,0,0,1-.21-.16.43.43,0,0,0-.14-.13c-.09,0-.1-.1-.13-.17a.74.74,0,0,0-.16-.27.83.83,0,0,0-.23-.15.52.52,0,0,0,0,.17,6.45,6.45,0,0,0,.21.62.29.29,0,0,1,0,.24c-.23,0-.31-.25-.51-.32-.06.19,0,.35,0,.53a4.29,4.29,0,0,1,0,.5c.11.14.25-.05.32.11a.58.58,0,0,1,0,.32c-.19-.07,0-.22-.1-.3s-.06.08-.09.08a.6.6,0,0,1-.49-.07s0,0,0,0-.27-.13-.37,0c-.36-.26-.41-.28-.55-.28.14.4.45.69.61,1.07l.12,0,.11.16a.77.77,0,0,0,.06-.15s-.07-.09,0-.14c.19.24.19.24.3.25v-.16c.1.07.14.27.34.12-.07.21.2.13.19.32a.78.78,0,0,1-.26,0,1.9,1.9,0,0,1-.53-.09,1.12,1.12,0,0,0-.37-.09h-.07c-.1,0-.21-.08-.31,0l0,0c-.08,0-.17-.06-.26,0l.14.22.15,0a1.4,1.4,0,0,0,.06.24s0,0,.07,0l0-.14c.11.05.11.05.15.12s0,.08,0,.08.24.19.4.15c0,.08-.05.16,0,.22s0,.13-.09.16a.46.46,0,0,1-.54-.14.61.61,0,0,1-.24,0L84.87,45c-.17.12-.2.12-.36,0a.15.15,0,0,0-.12-.05c-.22,0-.26-.22-.43-.26,0-.18-.15-.16-.28-.17a2.93,2.93,0,0,0,.15.76l.1-.1c-.06.11,0,.17.08.23a.18.18,0,0,1,0,.24l-.39-.33c-.13.08.07.15,0,.24a.38.38,0,0,1-.13-.06c-.18-.11-.18-.11-.27.11l-.32-.5-.26.11,0,.09a.78.78,0,0,1,.28.17c.2.18.31.24.22.53l0,0a1,1,0,0,1,.1.26.08.08,0,0,0,.14.05l-.07-.26c.11,0,.13.05.14.13s0,.22.09.23.25.21.41,0l.07.17c0,.08,0,.18.08.24a3.7,3.7,0,0,0,.35.32l.06-.14a.34.34,0,0,0,.11.07l.09,0,0,.24c-.07.06-.12,0-.18,0a1,1,0,0,0-.21.05l.1.26c-.24-.12-.26-.41-.48-.58l0,.21c-.11,0-.1-.16-.22-.14s-.09-.16-.21-.13l0,.22-.06,0c-.1-.14-.18-.3-.4-.29,0,0,0,0-.07-.06l-.09,0,0,0,.15.34c-.15-.07-.18-.23-.25-.35a.75.75,0,0,1-.24.18.86.86,0,0,0,.15.38l0-.29.21.22,0,.07-.07-.12a.23.23,0,0,0,0,.31.65.65,0,0,1,.12.4.88.88,0,0,0,0,.16s.05,0,.09.07a.58.58,0,0,0,0-.1c0-.21,0-.42-.08-.63s0-.15.11-.22c.07.17,0,.34.05.51s0,.34.09.5c.15-.09,0-.22.06-.31l.21.18a1.33,1.33,0,0,0,0,.2s0,0,0,0,.06,0,.06-.05,0-.06,0-.1v-.44c.13.07.13.07.14.18s0,.27,0,.41,0,.13.12.11l0-.5c.24.13.09.34.14.5l-.1.08-.09.13-.22-.14s-.1-.08-.12-.07-.22,0-.32-.06a.34.34,0,0,0-.11,0l-.05,0c-.08.14-.09.15-.23.08a.17.17,0,0,0-.18,0l-.15.11-.17-.16c-.11.11-.23,0-.35,0l-.06.16a.53.53,0,0,1-.1-.12.19.19,0,0,0-.22-.08c-.09,0-.09.11-.08.19a.11.11,0,0,1,0,.05l.1,0a1.08,1.08,0,0,1,.17.43l0-.17h0c0,.12,0,.24,0,.37s-.09.25,0,.41c.12-.22.07-.44.15-.66.2.18,0,.42.1.61,0-.06.08-.13.13-.14s0,.1.1.13l0,0c.14-.16,0-.38.09-.54.13.08,0,.26.13.37l0-.39h0s.08.07.1.11,0,.17,0,.25,0,.1.06.11a.18.18,0,0,1,.11.22.58.58,0,0,0,0,.41.37.37,0,0,1-.16-.14,2.5,2.5,0,0,1-.21-.35c0-.07-.07-.12-.17-.06a.83.83,0,0,1,0,.15l0,.14-.38-.08.11.25,0,0L82,49.8l0,0-.18,0-.07.22c-.21,0-.29-.26-.5-.29a.84.84,0,0,1,0,.1.29.29,0,0,1,0,.09c-.2,0-.2,0-.37-.11s-.09-.07-.14,0l.08.18-.15.07a1,1,0,0,0,.1.14.34.34,0,0,0,.12.06l.15.06.12,0a1.5,1.5,0,0,0,.08.3l0,0,0-.31c.09,0,.15,0,.17.06s0,.11,0,.16l.1,0,0-.23h.19a.9.9,0,0,1,.06.22.27.27,0,0,1,.11,0v-.1a.33.33,0,0,1,.18.27c.44-.28.89,0,.73.56a.75.75,0,0,1-.13.25.3.3,0,0,1,.08.19,1.1,1.1,0,0,0,0,.18c0,.16,0,.18-.14.22a.26.26,0,0,1-.21,0h-.09l-.06.16c-.13,0-.16,0-.18.1.2,0,.29-.14.61-.22a.63.63,0,0,1,.79.71c0,.11.06.2,0,.27s.25.25.25.35v-.38s0,0,0,0c.09.21-.09.45.07.67,0-.1,0-.16,0-.23s.17.12.12.39H84a.39.39,0,0,0-.2-.06.63.63,0,0,1-.12.65c-.1.15-.29.23-.39.37s0,.17,0,.26l-.12.16a2.2,2.2,0,0,0,0,.36.93.93,0,0,0-.24,0l-.45.62a3.87,3.87,0,0,1-.32.58c-.27.25-.3,0-.56,0,0,.26-.32.4-.49.48a3.25,3.25,0,0,1-.58.08.52.52,0,0,0-.21.59s0,.13,0,.13h0s0-.16,0-.14a2.08,2.08,0,0,1,.84-.55c.2,0,.34,0,.53-.07s.35-.23.57-.3c.43-.17.7,0,.52.52-.07.19-.48.31-.48.42v0c0-.1.28-.18.38-.23.31-.16.44.06.76-.08s.4-.61.92-.54a.67.67,0,0,1,.58.68,1.52,1.52,0,0,1-.45,1,.84.84,0,0,1-.13.27.3.3,0,0,0-.19.44.49.49,0,0,1-.18.33c-.2,0-.27.18-.2.4-.29.39-.55.62-.85,1a3.18,3.18,0,0,1-.67.7,5.19,5.19,0,0,0-.83.54c.22,0,.25.1.46.08s.39-.24.61-.24.45.22.52.21c.35,0,.83-.92,1.14-.13.26-.23,1.17-.49.88.24.42-.11.47.43.27.68.42-.3.65,0,1,.14s1-.11.89.51c.36-.25,1,.31,1,.67,0,.77-1,.7-1.38.74.22.09.4.71.35.94.32,0,.79.45.75.77-.06.52-.91.5-1.22.21-.13.35-.42.28-.61.53a1.41,1.41,0,0,1,.76-.07s.46.26.46.26.19.11.28.26-.1.26-.08.34.15.12.17.2.25.34,0,.57a1.89,1.89,0,0,1-.78.17,1.7,1.7,0,0,0-.78.09c-.31.11-.26,0-.58.23-.13.09-.27,0-.39.19.36,0,.74.14,1.11.11a2.48,2.48,0,0,1,.9,0,3.06,3.06,0,0,0,.59.17c.13,0,.35-.13.46-.08,1,.49-.35.75-.58,1.09,0,.06,0,.46-.06.53a.43.43,0,0,1-.33.15.5.5,0,0,1-.24.47,5.09,5.09,0,0,1-.66.34c-.13,0-.51-.16-.55-.15-.87.37.69.56.9.56a2.49,2.49,0,0,1,.86,0c.18.06.33.26.44.3a2.28,2.28,0,0,1,1,.41c.22.23.69.76.11,1-.35.14-.69-.2-1.08,0s-.4.48-.64.79a4.18,4.18,0,0,1-.66.46.44.44,0,0,1-.32.07.45.45,0,0,1,0,.19c-.49.21-.25,0-.69-.09,0-.21-.12-.27-.29-.16,0,.15,0,.3,0,.45s.1.39-.06.6c.21-.05.36,0,.57,0s.32-.25.54-.34.33-.07.6,0c0,.22.08.3.26.22a.46.46,0,0,1,.23.12c.78.83-.48.84-1,1.32.37-.13.76.32,1,.6.58.81-.48.91-.87,1.31a.37.37,0,0,1,.34.43c.19-.13.35-.09.51-.18s.12-.2.22-.26.71-.34.75.15c.26-.18,1.73-1.18,1.77-.29.46-.22,2.41-.87,2.46,0h0v.08h0v-.08c0,.28-.2.31-.24.49-.1.42.14.57-.21.93s-.25-.11-.38,0,0,.17,0,.22c-.36.31-.23.31-.38.76a6.12,6.12,0,0,1-.48.91.25.25,0,0,1-.25.13,1,1,0,0,1-.12.41l-.09.07a.47.47,0,0,0,.1.28c.1.09.09.18.11.29a2.7,2.7,0,0,0,0,.28s0,.06.09.13a2.39,2.39,0,0,0,0-.27c0-.16,0-.32,0-.47s0-.1.1-.11,0,.08,0,.12,0,.34,0,.51,0,.13.13.08,0-.19,0-.29a.36.36,0,0,1,.19-.38c.1.24,0,.51.14.74.07-.06.06-.11,0-.18a.24.24,0,0,1,0-.16,3.85,3.85,0,0,1,.3-.27.59.59,0,0,1,.13.44c0,.13,0,.27,0,.4s0,.09,0,.13a3.05,3.05,0,0,0,.05-.41c0-.12.09-.24.13-.37l0,0c0,.27,0,.53,0,.79,0,.06,0,.09.08.08l0-1.49c.13.12.13.13.13.23,0,.39,0,.79,0,1.19,0,0,0,.06,0,.09h0l0-1c.13.09.13.09.22,0l.19.3.12-.16a1.75,1.75,0,0,0,.08.76,7.63,7.63,0,0,0,.12-1l.11.7h0l.06-.63.14,0c0,.19,0,.36,0,.53s0,.12.1.1a4.25,4.25,0,0,1,.09-1.09c.08.21,0,.44.17.62a2.79,2.79,0,0,0,0-.5.55.55,0,0,1,.11-.48,1.15,1.15,0,0,1,0,.16c0,.2,0,.39,0,.59s0,.13.12.16a3.77,3.77,0,0,1,0-.89c.13,0,.11.14.11.22s0,.31,0,.47a.36.36,0,0,0,.13.29c0-.34,0-.63,0-.93l.17,0a3.86,3.86,0,0,0,.11.68s.07-.07.07-.11,0-.29,0-.43a2.28,2.28,0,0,1,0-.26c-.12-.06-.06-.22-.15-.32l0,.27s-.11,0-.11-.06-.11-.15-.21-.17-.06,0-.09-.07l.2-.14c0-.14,0-.24,0-.33s.06-.4.06-.59a.3.3,0,0,1,.23-.3c.06.23-.09.42-.06.63s-.1.42,0,.63c0-.1,0-.2,0-.3a2.33,2.33,0,0,1,.12-.55.61.61,0,0,0,.09-.43c.09,0,.11,0,.1.09s0,.26-.06.38a3.89,3.89,0,0,0,0,.47.24.24,0,0,0,.13.23l0-.43,0,0s.06.08,0,.11a.36.36,0,0,0,.06.33.37.37,0,0,1,0,.15c0,.16,0,.32.08.48l0,0c.11-.21,0-.46.13-.67.1.18,0,.38.08.58.13-.28,0-.58.18-.87.06.3-.08.61.12.86a5.8,5.8,0,0,1,.11-1c.14,0,.17,0,.17.17s0,.46-.06.69,0,.16.08.28c.09-.27,0-.56.18-.81.16.06,0,.16.06.24s0,.21.05.3,0,.19.09.25c.06-.09,0-.17,0-.24s0-.18.09-.22c0,.33,0,.33.1.38.08-.16,0-.35.08-.51.1.09.09.09.08.17s-.06.4-.09.6c0,0,0,.05,0,.06a.12.12,0,0,0,.08,0s0,0,0-.06,0-.26,0-.38a1.1,1.1,0,0,1,0-.18.63.63,0,0,1,.07.26c0,.09.06.12.14.08a1.07,1.07,0,0,1,0-.25.5.5,0,0,0,0-.3.31.31,0,0,1,.08-.48c.07,0,0,.19.15.19s.15.07.18.17,0,0,.08.08l0,0,0-.22.14,0a8.26,8.26,0,0,0,.07,1,.29.29,0,0,0,.08-.17c0-.16,0-.32,0-.47a1.53,1.53,0,0,1,.08-.59.23.23,0,0,1,.11.22c0,.21,0,.42,0,.63a2.08,2.08,0,0,0,0,.43s0,.05.08.09,0,0,0-.07c0-.2,0-.39,0-.59s0-.52,0-.78c0-.08,0-.15.14-.14a4.84,4.84,0,0,0,.09,1.26c.11,0,.09-.09.08-.15s0-.19,0-.28c0-.29,0-.29.26-.22l-.06-.58,0,.08,0,0c-.1-.1-.07-.27-.2-.35s0-.12.07-.11a1,1,0,0,1,.17,0,.2.2,0,0,1,.21-.16c.1,0,.11.1.09.2a.27.27,0,0,0,0,.12c.11,0,0-.25.2-.2,0,.23,0,.46,0,.69h0l.08-.61.12,0,.13.07a2.85,2.85,0,0,0-.06.39c0,.12-.09.24,0,.4l.17-.75.21.11a.14.14,0,0,1,.08.15c0,.21,0,.41,0,.61v.1h0c0-.13.06-.26.1-.39s0-.26.1-.42c0,.29-.08.53,0,.77.15-.21.1-.48.24-.69.09.22-.06.46.08.67.1-.17,0-.4.2-.52a.06.06,0,0,0,0,0,.3.3,0,0,0-.07-.28c.22,0,.22,0,.21.24s0,.15.07.15l.09-.54.14.16,0-.22.39.25,0-.46.16,0,0,.13c.07,0,.16,0,.17.07.07.18.46.26.48.48,0,0-.49,0,.29.09v-.48s0,0,.11,0c0,.34-.1.45,0,.54a1.63,1.63,0,0,0,0-.33c0-.12.11-.21,0-.33s-.25.09-.42,0l.26-.17,0,0c-.14,0-.28.15-.42.16.11-.15.33-.11.47-.11h-.35c0-.81,0-.55.1-.79.14.21,0,.37.1.58,0-.17.06-.33.09-.47h.17c0,.08,0,.14.07.24a.83.83,0,0,1,.28-.43,2.32,2.32,0,0,0,0,.91.66.66,0,0,0,.1-.44.92.92,0,0,1,.08-.46c0-.07.07-.14,0-.22s0-.1,0-.15.17.06.17.16,0,.31,0,.46a1.19,1.19,0,0,0,0,.14,2.38,2.38,0,0,0,.13-.72c.08.08,0,.21.1.27s0,0,0-.06a4.43,4.43,0,0,0,0-.63.46.46,0,0,1,.09-.34l-.13-.16c.11,0,.18,0,.19.09a2.89,2.89,0,0,0,0,.29.77.77,0,0,0,.09.13l0-.5a.32.32,0,0,0,.11.19c.06-.27.06-.27.16-.27s0,.21.12.27a.64.64,0,0,0,0-.41A.16.16,0,0,1,104.5,79.79Zm-6.62,3.36,0,0a.65.65,0,0,0-.21-.61,3.15,3.15,0,0,1-.22-.29s0-.06,0-.11l.1.11a1.26,1.26,0,0,0,.33.4s.05,0,.05.08A1.21,1.21,0,0,1,97.88,83.15Z"/><path class="cls-8" d="M97.64,92.12l-.78-.34a.26.26,0,0,1,.06-.26l.34-.38s.06-.09,0-.15l-.08,0-.61.55c-.06.07-.11.12-.17.07s.19-.21.12-.4l-.39.33-.67-.11a.88.88,0,0,0,0-1.31c-.08.19.07.34.09.5-.17.28-.18.35-.1.49l.14-.32a.48.48,0,0,1-.49.59,1.85,1.85,0,0,0,.18-.81.4.4,0,0,1-.15,0,.42.42,0,0,0-.45.16.27.27,0,0,1-.13.07,1.26,1.26,0,0,1-.27,0,1.6,1.6,0,0,0-.8.22c-.13.07-.14.12-.06.28.09-.06.06-.23.21-.25s.2-.07.3-.1a.63.63,0,0,1,.37,0,3,3,0,0,0-.3.14.24.24,0,0,0-.1.1.57.57,0,0,0-.07.22.37.37,0,0,0,0,.18s.08,0,.12,0l.06-.45a5.71,5.71,0,0,1,1-.42c0,.17-.17.31-.12.52a1.8,1.8,0,0,1-.64.11.15.15,0,0,0-.16.12.29.29,0,0,0,.32.08,1.41,1.41,0,0,1,.86-.06h.16a2.91,2.91,0,0,1,.63.12c0,.06-.06.14-.1.14s-.14.14-.19.24c-.26,0-.52-.07-.77-.14a3.08,3.08,0,0,0-1.28-.06c-.17,0-.31,0-.37-.17-.06,0-.11.09-.16.08l-.45-.12c0-.16,0-.34-.15-.44l.27-.47s-.08,0-.08,0a2.75,2.75,0,0,0-.32.44.2.2,0,0,0,.08.28s0,.1,0,.16a.27.27,0,0,1-.12,0,4.13,4.13,0,0,0-1.11-.09h0a.26.26,0,0,1-.07-.11s0,0,.08-.07.13.06.19.1.18,0,.14-.21a.5.5,0,0,1,0-.12c0-.13,0-.28,0-.43-.21.13-.19.52-.24.52H91.3A3.84,3.84,0,0,1,91.5,90a3,3,0,0,0-.41,1.35l-.34.11c.14,0,.26,0,.38.07-.14.14-.29,0-.45.07a.14.14,0,0,0,.18.12l.28,0a1.62,1.62,0,0,0,.19,0c.16,0,.32,0,.47,0,.46.09.92.17,1.37.28.11,0,.28.08.25.29,0,0,0,.06.09.11l0-.08c.08-.22.13-.25.34-.22l.31,0s.1,0,.1,0,.16-.14.26-.14a3.72,3.72,0,0,1,1,.14,5.47,5.47,0,0,0,.68.14s.06-.14,0-.17V92h0v.11c0-.16.11-.2.2-.31s.08,0,.1,0a.13.13,0,0,1,.06.1c0,.08.08.16.07.24s-.27-.07-.27.07h0a1.15,1.15,0,0,1,.44.16.89.89,0,0,0,.17.08s-.19,0-.18,0,.35-.11-.43-.17v-.34a1.74,1.74,0,0,1,1.12.47C97.61,92.21,97.78,92.17,97.64,92.12Z"/><polygon class="cls-8" points="96.25 92.24 96.26 92.24 96.26 92.24 96.25 92.24"/><path class="cls-8" d="M83.83,91.34c0,.23,0,.25.18.27l0-.33.86-.37a2.68,2.68,0,0,0-.19-1.47.44.44,0,0,0-.09-.13.27.27,0,0,0,0,.29,2.53,2.53,0,0,1,.2.7c0,.15,0,.29,0,.43a.18.18,0,0,1-.13.19l-.07-.11-.11.1-.14-.13,0,.3a3.16,3.16,0,0,1-1.12.3c-.11-.53-.18-.68-.39-.84,0,.16.09.28.13.42a4,4,0,0,0,.17.44.55.55,0,0,1-.37.06,1.31,1.31,0,0,0-.59,0,2.65,2.65,0,0,1-1,.15s-.09,0-.13,0v0a.84.84,0,0,0,.2.05,3.25,3.25,0,0,0,.45-.08l.62-.17a1,1,0,0,1,.25,0c.11,0,.22,0,.33,0a2.39,2.39,0,0,0,.45-.09c.11,0,.21,0,.27.09s.09.06.15,0l0-.16Z"/><path class="cls-8" d="M93.07,93.13c-.09,0-.2,0-.22-.1a.16.16,0,0,0-.16-.12c-.23,0-.44-.16-.68-.07,0,0,0,0-.05,0s-.21-.06-.31-.06a.57.57,0,0,1-.4-.07s-.11,0-.17,0h-.16l-.71-.07-.66,0h-.1v0l.1,0,.63.11a2.47,2.47,0,0,1,.29.06c.24,0,.49-.07.71.1.15-.07.29.09.44,0a.17.17,0,0,1,.1,0,1,1,0,0,0,.49.12.61.61,0,0,1,.18,0,.61.61,0,0,0,.18,0l.85,0h.1v0C93.36,93.14,93.22,93.12,93.07,93.13Z"/><path class="cls-8" d="M91.76,93.25c-.13,0-.28,0-.36-.16a.17.17,0,0,0-.16-.06,5.77,5.77,0,0,0-.58.08s0,0-.08.06l0,0,.44,0a.19.19,0,0,1,.22.08.26.26,0,0,0,.19.09,1,1,0,0,1,.35,0l.74.06c.06,0,.1,0,.12-.09a.25.25,0,0,0-.11,0Z"/><path class="cls-8" d="M85.31,90.29l-.14,0L85.09,90H85c-.13.26,0,.51,0,.76l.26,0A.7.7,0,0,0,85.31,90.29Z"/><path class="cls-8" d="M93.26,91.73c0-.24.06-.46.1-.67s.07-.45.11-.69a.23.23,0,0,0-.17.21c0,.25-.09.5-.13.74a1,1,0,0,0,0,.29C93.14,91.68,93.17,91.75,93.26,91.73Z"/><path class="cls-8" d="M86.3,89.75s-.07.08-.07.12c0,.27,0,.54,0,.81h0A1.63,1.63,0,0,0,86.3,89.75Z"/><path class="cls-8" d="M94.35,92.35a.18.18,0,0,0-.1,0,3.09,3.09,0,0,0,.59.08c.19,0,.38.13.58,0a2.61,2.61,0,0,1-.27-.06A2.69,2.69,0,0,0,94.35,92.35Z"/><path class="cls-8" d="M101.45,73.23c0-.16-.12-.23-.21-.33-.09.07,0,.13,0,.18a.88.88,0,0,1,.09.2.37.37,0,0,0,.21.26s.07,0,.14,0a.88.88,0,0,1-.14-.15S101.45,73.28,101.45,73.23Z"/><path class="cls-8" d="M95.34,84.6l-.16-.78a1.22,1.22,0,0,0,0,.77S95.3,84.6,95.34,84.6Z"/><path class="cls-8" d="M92,91.48a2,2,0,0,0,0-.59.54.54,0,0,0-.13.47C91.81,91.43,91.84,91.49,92,91.48Z"/><path class="cls-8" d="M87.16,92.31c-.14,0-.29-.11-.42.06a1.27,1.27,0,0,0,.84-.08A3,3,0,0,0,87.16,92.31Z"/><path class="cls-8" d="M90.5,91a.51.51,0,0,0,0,.24.13.13,0,0,0,.06,0s.09,0,.09-.07c0-.17,0-.34-.05-.52C90.5,90.78,90.53,90.91,90.5,91Z"/><path class="cls-8" d="M84.59,91.5l.71-.25a.83.83,0,0,0-.73.19Z"/><path class="cls-8" d="M92.24,91.52s.08,0,.08-.06V91a.58.58,0,0,0-.17.47A.13.13,0,0,0,92.24,91.52Z"/><path class="cls-8" d="M97.23,84.83s.11,0,.21-.07c-.24-.11-.13-.32-.22-.46a.45.45,0,0,0-.07.39S97.2,84.82,97.23,84.83Z"/><path class="cls-8" d="M95.73,92.79c.23,0,.41.13.62,0C96.06,92.68,95.87,92.66,95.73,92.79Z"/><path class="cls-8" d="M104.65,80.48a.58.58,0,0,0-.08-.57A.76.76,0,0,0,104.65,80.48Z"/><path class="cls-8" d="M104.79,79.72a.76.76,0,0,0,.12.66A1.22,1.22,0,0,0,104.79,79.72Z"/><path class="cls-8" d="M84,90.6s-.07.05-.07.07a.54.54,0,0,0,.16.39.45.45,0,0,0,0-.1C84.12,90.84,84.13,90.7,84,90.6Z"/><path class="cls-8" d="M85.42,91a2,2,0,0,0-.73.13A1.38,1.38,0,0,0,85.42,91Z"/><path class="cls-8" d="M97.07,92.77c0,.19.14.26.38.26A.59.59,0,0,0,97.07,92.77Z"/><path class="cls-8" d="M90,42.3h.06c.09-.13,0-.28,0-.41s0-.13-.11-.14Z"/><path class="cls-8" d="M83.71,90.61a.86.86,0,0,0,0,.57A1.11,1.11,0,0,0,83.71,90.61Z"/><path class="cls-8" d="M90.82,91s0,.08,0,.12a.82.82,0,0,1,0,.18.58.58,0,0,0,.29-.4Z"/><path class="cls-8" d="M95.79,91.38s0,.07.07.13L96,91A.4.4,0,0,0,95.79,91.38Z"/><path class="cls-8" d="M86.79,91.37c0,.09-.06.15-.08.21a.08.08,0,0,0,0,0c0,.12,0,.17.15.18Z"/><path class="cls-8" d="M92,46.19a.65.65,0,0,0,0-.37s0,0-.08,0,0,0,0,0S91.83,46.08,92,46.19Z"/><path class="cls-8" d="M91.73,46.47c0-.23,0-.34-.11-.43A.48.48,0,0,0,91.73,46.47Z"/><path class="cls-8" d="M92.33,50.19l-.14-.32C92.11,50.06,92.17,50.17,92.33,50.19Z"/><path class="cls-8" d="M86.05,90.43c-.1.09-.09.2-.1.33C86.12,90.68,86.12,90.67,86.05,90.43Z"/><path class="cls-8" d="M94,51.07l-.07-.39C93.79,50.92,93.8,51,94,51.07Z"/><path class="cls-8" d="M90.39,91.12c.09-.11.09-.17,0-.35l0,.35Z"/><path class="cls-8" d="M100.59,70.19l-.14-.26C100.38,70.12,100.44,70.2,100.59,70.19Z"/><path class="cls-8" d="M84.29,91.57h.07v0s-.09-.11-.17,0Z"/><polygon class="cls-8" points="97.66 54.37 97.65 54.37 97.65 54.37 97.66 54.37"/><path class="cls-8" d="M97.75,54.27l-.09.1h.2C97.8,54.3,97.76,54.26,97.75,54.27Z"/><path class="cls-8" d="M86.55,90.77l-.11.1,0,0,.12-.1Z"/><path class="cls-7" d="M56.08,85.2l.08.36.06,0,0-.36Z"/><path class="cls-7" d="M54,74.4l.26.14,0-.07L54,74.32Z"/><path class="cls-9" d="M74.19,100.27a2.29,2.29,0,0,0-.28-.07c-.16,0-.32,0-.48,0l-.06-.07.11,0c.23,0,.45,0,.68,0s.19,0,.14.17Z"/><path class="cls-9" d="M91.62,81c0-.09,0-.16,0-.25a.49.49,0,0,0-.43.16c-.08,0-.18-.08-.21-.06-.2.15-.45.1-.66.19s-.12,0-.18.06a3.14,3.14,0,0,0-.37.18.58.58,0,0,0-.14.13c-.2-.13-.4,0-.63-.06.18-.17.33-.33.49-.5l-.08,0h-.08a2.31,2.31,0,0,1-.81.45,2.65,2.65,0,0,0-.42.26s-.1,0-.12,0-.26,0-.36.06l-.24.18,0,0c.13-.21.4-.33.36-.64-.28.07-.35.39-.57.53a.39.39,0,0,0-.48.07c-.11.08-.47.15-.47.24v-.22c0,.12-.28.22-.49.34.09-.32.57-.41.56-.75-.17,0-.2.14-.29.21s-.14.11-.18.09-.3,0-.42.13-.27.12-.44.13a.46.46,0,0,0,.18-.43c0-.25,0-.5,0-.76s0-.22.15-.23c.18.23,0,.52.15.77.07-.06.15-.1.17-.17s.05-.21,0-.26-.07-.26,0-.41l.25-.15c.07.18,0,.38.11.54a.66.66,0,0,0,.23-.32c0-.14.11-.2.24-.1a.16.16,0,0,0,.12,0,2,2,0,0,0,.42-.27c.1-.09.07-.14,0-.23a1.36,1.36,0,0,1-.17-.17l-.23.17,0-.18-.38.15,0,0,.39-.44c-.16,0-.23.06-.31.11L85.5,80a.41.41,0,0,1-.15.07h-.56c0-.24.19-.35.32-.49s-.16-.37,0-.54l.07.33c.06,0,.12,0,.14,0l1-.93c.17,0,.3,0,.38-.12a.37.37,0,0,1,.28-.09s.09,0,.16,0L86.9,78c-.1.11-.19.2-.27.3-.06-.06-.11-.14-.16-.14s-.14,0-.17-.09.2-.25.08-.47a2.68,2.68,0,0,0-.37.26,4.7,4.7,0,0,0-.35.43c-.07.09-.13.18-.26.15,0-.2.29-.13.23-.38l-.34.1c-.18-.12-.25-.13-.41,0a2.69,2.69,0,0,0-.2.27c0,.06-.1.12-.18.22-.09-.22-.2-.17-.33-.1l-.31.15,0,0,.24-.33c-.33,0-.36.36-.61.41,0-.2.21-.35.17-.58-.27.2-.51.44-.77.66-.12-.24-.18-.26-.39-.21s-.17.07-.24.05-.2,0-.3.09a3.67,3.67,0,0,1-.53.34.68.68,0,0,1-.35,0S81,79.05,81,79s.1-.06.14-.07a1.15,1.15,0,0,0,.68-.28s0-.11.07-.16c-.21-.13-.38.06-.56,0a1,1,0,0,1-.06-.78c.1.06.14.26.33.16,0-.46-.07-.91-.1-1.38.23.09.24.28.26.47s0,.3,0,.45.06.07.09.1h0v-.68l.07,0a1,1,0,0,1,.1.21c0,.08,0,.2.16.19,0-.21,0-.41.06-.64l.2-.12c0,.13,0,.23,0,.33s0,.22.16.25c.1-.39-.09-.77,0-1.16.15,0,.23.11.22.27a2.08,2.08,0,0,0,0,.43,1.4,1.4,0,0,0,.11.65c.16-.24,0-.49.09-.71.15,0,.15.16.15.28a5.42,5.42,0,0,0,0,.57,5.32,5.32,0,0,0,.06.56c0,.14.1.13.2.06a2.57,2.57,0,0,1-.07-1.18c.06.06.1.08.11.11a1.37,1.37,0,0,1,.16.59,2.35,2.35,0,0,0,0,.37.11.11,0,0,0,.17.09s.06-.1.07-.16a.3.3,0,0,0,0-.11.6.6,0,0,1,.1-.64c.09.25,0,.53.19.75.17-.08.18-.08.15-.18a1.42,1.42,0,0,1-.08-.18V76c.13.11.14.11.14.27v.8a.6.6,0,0,0,.14.49c.15-.12.14-.12.13-.25,0-.29-.08-.58-.09-.87a.71.71,0,0,1,.13-.28l.26.1c.17-.27-.09-.58.09-.87,0,0,.07.07.07.1a1.41,1.41,0,0,1,0,.29c0,.17,0,.31.17.32a1.36,1.36,0,0,1,.08.58V75.53c.79,0,.42.12.42.3s.15.28.18.42.08.07.12.1.07,0,.07,0V75.6l0,0a.66.66,0,0,1,.08.13c0,.1,0,.21,0,.31a1.06,1.06,0,0,0,.06.19h.08c.08-.34,0-.7.06-1.06.14,0,.23,0,.22.18s.23.36.23.53V75.2s.07.27.23.13c0-.18-.22-.34-.11-.55.22.35.22.35.4.27l-.2-.38h.16a1.45,1.45,0,0,0,.81.24s.1,0,.15.06a1.44,1.44,0,0,0,.22.07c0-.11,0-.22-.08-.23s-.29-.32-.52-.17l-.13-.3s-.06.05-.07.08,0,.15-.15.13-.2,0-.13-.16a.18.18,0,0,0-.08-.06l-.23-.08,0-.18-.67,0c-.19,0-.37.16-.56,0,0,0-.07,0-.11,0h-.41l-.38.1a.68.68,0,0,1-.21,0l.34-.16,0-.06-.4.06c0-.08,0-.13.08-.23a1.87,1.87,0,0,0-.33,0,3.88,3.88,0,0,0-.45.14,1.44,1.44,0,0,1-.76.1c0-.18,0-.34,0-.51s0-.19.17-.15a1.82,1.82,0,0,1,.07.25c.09-.08,0-.3.17-.25a.66.66,0,0,1,0,.3v-.31c0-.06.27-.11.35-.17,0,.15.2.28.23.41.17-.15,0-.34.09-.53l.25-.07c0,.15,0,.27.06.4.12,0,.17-.11.14-.23s-.08-.22,0-.32c.14.07.41.08.41-.06v-.52c0,.07.16.19.18.29s0,.25.08.37.07,0,.16.12c0-.29,0-.51,0-.76l.19,0c.09.18,0,.37.16.56,0-.2.05-.34.07-.49s0-.15.14-.11,0,.33.12.45c.15-.1.07-.23.06-.34a.34.34,0,0,1,.21-.39c.08,0,0,.23.21.19l0-.57a2.19,2.19,0,0,0,1-.46,1.26,1.26,0,0,0-.28,0c-.12,0-.3.07-.34,0s-.23-.08-.35,0a.87.87,0,0,1-.23.08l0-.24-.54.18.06-.3-.7.41a.18.18,0,0,1,0-.17.61.61,0,0,1,.16-.09L85.69,71l-.36.19c0-.16-.13-.14-.23-.07s-.19.16-.33.09c0-.07,0-.13,0-.23l-.67.37,0,0,.14-.2c-.11-.08-.17,0-.24,0s-.11.09-.14.08-.28,0-.41.07-.18,0-.21-.11,0-.26-.06-.37l.38-.14.13.22c.13-.06.11-.13.09-.21a1.09,1.09,0,0,1-.07-.24s0-.08.1-.16c0,.22.08.39.11.57.23-.11.22-.11.15-.28a.92.92,0,0,1,0-.28.16.16,0,0,1,.21-.18c.1.08,0,.32.28.25l0-.36.3.16c0-.17-.11-.33,0-.47.18.39.18.39.31.37.07-.18-.19-.34,0-.53.13.05.08.27.26.26l.07-.26c.1.18.17.35.37.3l-.06-.47a3.36,3.36,0,0,0,.36.27,2.69,2.69,0,0,0,.45.11l-.14-.23c0-.08-.06-.15-.1-.24l.27-.08c.12.35.3.5.53.46l-.44-.54.23-.2c-.19,0-.35.14-.49,0v-.25l-.37.27s-.05,0-.09,0,0-.15.09-.27l-.45.18-.16-.22-.29.08-.2-.19L84.3,69c0-.17-.12-.22-.25-.14l-.5.3c0-.08,0-.12-.06-.16a1.25,1.25,0,0,0-.08-.12.19.19,0,0,1,.07-.28l.39-.19c-.08-.2-.08-.2,0-.28s.13.11.19.1.07-.12.06-.21v-.07c.18-.14.27,0,.35.12.17,0,.23-.12.14-.26s0-.22.08-.37c0,.18.08.29.12.41s.06.17.12.2a.29.29,0,0,1,.17.27.71.71,0,0,0,.09.17c.2-.13.17-.3.11-.47l.19.1c0-.09.07-.17.11-.24l.17,0a2.73,2.73,0,0,1-.06-.31c0-.1,0-.21.12-.23a1.27,1.27,0,0,0,0,.29s.08.09.12.13.07-.11.07-.17a.92.92,0,0,0,0-.25.44.44,0,0,1,.5-.05c0,.15.09.27.31.27s.3.14.44,0l-.36-.17.14-.23h-.61c-.06,0-.16,0-.17-.07s0-.13.09-.19.19-.09.16-.25l-.32.08c-.07-.23.31-.27.18-.53-.36.15-.54.53-.9.71l.12-.26,0,0-.36.29c0-.24.24-.37.15-.58-.35,0-.54.34-.78.55l-.12-.34a4.16,4.16,0,0,0-.35.24c-.09.08-.17.2-.27.28a1.11,1.11,0,0,1-.38.18c-.08,0-.18,0-.28-.08,0-.3,0-.61,0-.92a.29.29,0,0,1,.2-.27c0,.16,0,.29,0,.42s-.06.27.11.35c.06-.26-.08-.57.21-.75a3.11,3.11,0,0,0,.06.69.35.35,0,0,0,.1-.19,2.85,2.85,0,0,0,0-.71.44.44,0,0,1,.15-.37c0,.22,0,.45,0,.67.15-.26.08-.59.23-.91.08.16.13.28.19.41.13-.15,0-.42.28-.43l.07.22h.06l.1-.25.35.1a2.64,2.64,0,0,0,0,.4c0,.11,0,.28.15.31.07-.24,0-.5.08-.71.13,0,.16.07.16.16a2.62,2.62,0,0,1,0,.28c0,.09,0,.17.13.19l.09-.23.13.25a.31.31,0,0,0,0-.15c0-.06,0-.12,0-.17s.07-.18.12-.2.13.07.16.15h.05c.07-.24.07-.24.25-.3s.09.43.39.34l0-.23c.17,0,.35,0,.46-.18-.29,0-.23-.27-.35-.43l-.48.24a2.51,2.51,0,0,0-.19-.24c-.14-.13,0-.22,0-.35a.38.38,0,0,1-.16-.05c-.14-.12-.25,0-.35.06a1.64,1.64,0,0,1-.71.36l.4-.55,0,0-.26.1L85.32,64l-.83.44c-.18,0-.08-.23-.17-.35-.31.12-.4.55-.77.63a1.5,1.5,0,0,0,.12-.51c0-.15-.14-.28-.22-.42.14-.11.25,0,.39.08l.3-.34c.34.18.47.18.6-.07a.31.31,0,0,1-.41-.08c-.15-.15,0-.28,0-.45-.36.12-.51.5-.88.58l.11-.26-.41.19a1.34,1.34,0,0,1,.19-.26c.06-.06.14-.12.07-.21s-.15,0-.22,0l-.11.08c-.19.15-.37.3-.58.45l-.08-.17-.28.16,0,0,.2-.3c-.12,0-.21-.07-.27,0-.25.11-.49.24-.74.37l-.17.09-.06-.3c-.33-.06-.51.34-.88.27l.27-.29-.38-.21-.62.52c0-.17.21-.16.14-.34-.13.06-.24.13-.36.2,0-.16-.06-.29-.09-.43s-.09-.28.13-.37c0,.16.06.31.08.45.18-.18,0-.41.12-.59s.16,0,.19.12.11.16.23.08a.25.25,0,0,1,0-.07s0-.1,0-.15a.27.27,0,0,1,.13.07,1.66,1.66,0,0,1,.16.21,1.19,1.19,0,0,0,0-.49,2.07,2.07,0,0,0-.1-.43l-.22-.06c.26-.28.45.12.7,0a3.76,3.76,0,0,0,0,1.06.23.23,0,0,0,.16-.31,2.1,2.1,0,0,1,0-.75c.14-.06.26-.09.35,0s0,.32,0,.47,0,.22.12.2.09-.14.08-.24,0-.07,0-.1,0-.32,0-.38,0-.18,0-.25.19-.05.2.08,0,.36.07.54h.07a.7.7,0,0,0,.07-.22c0-.12,0-.24,0-.36s0-.17.19-.2c0,.18.08.37.11.55.22-.09.26-.15.16-.31a.27.27,0,0,1-.07-.21h0c0-.81.19-.59.19-.57v.46a.11.11,0,0,0,.08,0h0c.07-.07.16-.13.15-.2,0-.23.06-.45.07-.67a.3.3,0,0,1,.27-.34c.09.22,0,.48.12.71,0-.05.11-.08.12-.12a1.82,1.82,0,0,0,0-.33c0-.25-.06-.49-.08-.73s.06-.18.2-.14l0,.28a.78.78,0,0,0,0,.22s.07.08.1.12.1-.08.1-.12a2.54,2.54,0,0,0,0-.39c0-.11,0-.22,0-.33s0,0,.09-.06l.09.17c.18,0,.18-.11.22-.22s-.07-.13-.11-.19.07-.17.23-.18a.25.25,0,0,0,.13,0l.26-.31L84,58.16c0-.08.09-.15.15-.27-.12,0-.22.07-.29,0s-.16,0-.21.09l-.51.63a.27.27,0,0,1-.08.07l0,0,.12-.24c-.34,0-.43.32-.53.63-.12-.24.16-.41,0-.63a1.81,1.81,0,0,0-.63.75,2.11,2.11,0,0,1-.74.87c-.12,0-.24-.12-.31-.08s-.25,0-.38-.06a.49.49,0,0,0,0,.22c.1.18.1.22-.1.28l-.15,0,.13-.28-.21,0c0-.11,0-.2,0-.27l-.58.19s0,0,0,0c-.08.18-.19.19-.36.12s-.11,0-.15.06c-.33-.19-.22-.49-.24-.75l.25-.19c0,.26.09.49.13.73.25-.27,0-.55.08-.85l.23,0c.16.19,0,.48.31.61,0-.27-.08-.49-.11-.71.25-.07.19.14.25.23s.1.15.16.16.11-.08.21-.16c-.22-.06-.28-.17-.21-.35l.28-.14.09.3.29-.37c.19.38.26.41.47.18-.23,0-.23,0-.32-.44a1.79,1.79,0,0,1,.42-.3,1.26,1.26,0,0,0,.64-.45c0-.07.18-.07.14-.24a1.54,1.54,0,0,0-.47.31c0,.06-.17.15-.19.13s-.26,0-.38.06C81,58,81,58,80.81,58.07s-.16.15-.23.14c-.23,0-.33.13-.46.25s-.12.12-.18.12a3,3,0,0,1-.68,0l.19-.13.18-.11a1.48,1.48,0,0,1-.21-.9l.2.31a1.16,1.16,0,0,0,0-.22c0-.11,0-.22,0-.33a.35.35,0,0,1,.2-.38c.06.2.1.37.15.54H80c0-.11,0-.22.06-.36.25.07.14.34.26.46.12,0,.12-.11.1-.2a.2.2,0,0,1,.12-.28c.07.05.18.1.31.19a.69.69,0,0,1,.22-.7c.1.09-.44.28.35.33v-.55a.94.94,0,0,0,.15.67c.13-.26-.23-.53,0-.83l.14.29.09,0a1.46,1.46,0,0,0,0-.2c0-.21,0-.22.2-.21s.23-.07.17-.24,0-.32.18-.35a.41.41,0,0,0,.16,0l.06-.06-.13-.17c.23-.26.6-.36.72-.76-.25,0-.37.29-.61.29l-.11-.13-.14.1c-.12.08-.25.21-.38.22a.59.59,0,0,0-.39.17c-.15.14-.28.17-.44,0a.16.16,0,0,0-.24,0c-.13.14-.28.27-.42.4l-.27.22s-.08,0-.09-.07c-.13-.18-.15-.18-.33-.09l-.24.14a1.53,1.53,0,0,1-.12-.78.67.67,0,0,1,.11-.18c.17.21.08.5.3.72,0-.13,0-.22,0-.29s-.06-.38-.09-.56,0-.22.14-.27c.07.15.12.3.18.44.23-.08,0-.28.12-.37.27.23.25.24.44-.06l.16.23c.19-.09-.06-.41.23-.43.09.09,0,.29.18.36.15-.2-.1-.42.06-.65a.86.86,0,0,0,.12.22c0,.05.11.12.16.12a.19.19,0,0,0,.15-.21c0-.06,0-.12,0-.19.21.11.29.11.34,0a.77.77,0,0,1,.38-.43s.08-.09.12-.14l.13-.13,0,0,0,.37c.25-.12.26-.15.09-.6L82.5,53l-.06-.16c-.24.27-.49.45-.81.23l-.38.18c-.11.06-.19.17-.32.05s-.1,0-.14.06-.25.18-.38.27a1.37,1.37,0,0,0,.36-.83,1.05,1.05,0,0,0,.3-.14,4.14,4.14,0,0,0,.44-.5.68.68,0,0,1,.3-.23.92.92,0,0,0,.41-.44s0-.11,0-.18a.68.68,0,0,0-.13,0,2.75,2.75,0,0,1-.28.19c-.18.1-.26,0-.31-.16a1.15,1.15,0,0,0-.06-.17c-.31.1-.38.18-.37.45s-.06.16-.16.19l-.15-.2-.54-.06a.89.89,0,0,1-.32.21,1.39,1.39,0,0,1-.39-.05.82.82,0,0,1,.43-.39,1.15,1.15,0,0,0,.26-.19s0-.09,0-.2a.79.79,0,0,1-.5.4c-.12-.21.06-.3.19-.48-.13,0-.21.09-.25.06s-.17-.09-.26,0,0,0-.08,0a.67.67,0,0,0-.55.16.38.38,0,0,1-.5,0c-.15.16-.15.16-.42.09l0-.22c0-.08,0-.16,0-.24-.23,0-.25.23-.44.29a1.39,1.39,0,0,1,0-.17s0-.09,0-.09c-.22-.11-.11-.32-.15-.48s0-.16.16-.18l.11.38h.07c0-.15-.05-.34,0-.45a.7.7,0,0,0,.09-.46l0-.08a.19.19,0,0,1,.18-.23c.1.19.07.41.27.6,0-.17,0-.28-.06-.39s0-.2.18-.17c.15.27.06.62.28.88,0-.22,0-.44,0-.71l.24.44c.21,0,.15.27.3.34s.17-.1.1-.25-.1-.27-.15-.41c.41-.13.41-.13.41-.31-.14.08-.27.13-.36,0l.17-.44.22-.07.27.37c.27-.1-.1-.29.1-.38l.19.13c.05-.21-.13-.4,0-.56.1,0,.19.06.24,0s0-.14,0-.21,0-.17.07-.23l.06,0c.05,0,.12.06.16,0s0-.12,0-.2a2,2,0,0,1-.08-.28c.12,0,.22,0,.28,0a.25.25,0,0,0,.31,0,1.44,1.44,0,0,0,.27-.22.51.51,0,0,1,.57-.22c.17.08.29,0,.42-.06s0-.08,0-.12a.16.16,0,0,0-.09-.09,1.85,1.85,0,0,0-.27,0,2.23,2.23,0,0,0,.08-.24.77.77,0,0,0,.66-.37l-.31.12c0-.12,0-.23.07-.33l-.53.07-.19-.16a1.43,1.43,0,0,1-.27.32,1.74,1.74,0,0,1-.58.2.8.8,0,0,0-.51.36c-.06.07-.1.16-.16.23a.54.54,0,0,1-.17.08c0-.26.28-.37.29-.67l-.69.65-.1-.26a2.9,2.9,0,0,1-.71.5c-.19-.14,0-.24,0-.34-.26-.36-.26-.42.07-.54l0,.1c.07.22.14.24.31.09l.13-.08a6,6,0,0,1,.69-.3s.07,0,.09-.07a1.67,1.67,0,0,1,.49-.5.18.18,0,0,0,.09-.24c-.16.11-.27.22-.4.32a1.94,1.94,0,0,1-.36-.07v-.37c-.78.24-.64.46-.9.69,0-.12-.17-.2-.21-.32-.14.1-.26.25-.38.25s-.32.18-.45.32l-.12.1c0-.16.2-.2.1-.36-.21.06-.32.42-.6.17l-.25.24a.61.61,0,0,0-.11-.36,2.72,2.72,0,0,1-.15-.54c0-.2,0-.22.23-.22.11.17.1.42.32.55.14-.2-.15-.3-.06-.49l.14-.05c.09.15.07.33.26.43l.13-.3c-.24-.14-.24-.17,0-.32l.18.14.17-.53c.15,0,.29,0,.34,0s.23-.07.35,0a.67.67,0,0,0,.11-.14c0-.1.13-.13.19-.08s.16,0,.25,0a1,1,0,0,0,.44-.34c-.07,0-.13-.14-.19-.13a1.92,1.92,0,0,0-.37.11l-.17-.22-.34.29c-.18-.07-.24-.24-.26-.47a2.58,2.58,0,0,0-.27.21A1.71,1.71,0,0,0,78,44c-.07.14-.2,0-.29.08a1.81,1.81,0,0,1-.39.17c-.06-.18-.13-.34-.17-.49s0-.27.26-.32c0,.12,0,.22.08.36.19-.12,0-.33.09-.46s.09-.1.14-.1,0,.41,0-.4H78c0,.81,0,.34.06.4a1.15,1.15,0,0,0,.12.25.31.31,0,0,0,0-.12.94.94,0,0,0,0-.16c0-.09,0-.18.1-.19s.1.25.28.18c0-.15-.18-.34.08-.43.1.12.07.32.29.4a3.49,3.49,0,0,1-.06-.37c0-.11,0-.23.13-.24.1.35.1.35.24.32l-.06-.46h.07l.1.16.63-.77a1.93,1.93,0,0,0-1,.41c-.26.19-.33.16-.48-.13s-.11-.23.09-.37l.17.12c0-.07.07-.13.09-.19a1.6,1.6,0,0,0,0-.22l.48,0-.12-.29c-.31-.12-.47.11-.67.25-.11-.17-.24-.08-.36-.06s0,.34-.25.28c.07-.13.13-.25.19-.38a.37.37,0,0,0-.47.11c-.08.09-.15.23-.31.19a.28.28,0,0,0-.29.12,1.73,1.73,0,0,1-.21.17l-.24-.08c0-.13-.08-.25-.11-.37s-.06-.21.16-.34c.1.17,0,.42.22.56l.07,0c0-.25-.1-.49-.15-.76s.29-.21.46-.28l.11.35c.22-.08.08-.23.1-.29s.14.09.2.08,0-.13,0-.19,0,0,.06-.1c.06.32.26.38.52.36a.37.37,0,0,0,.32.35c.11-.21-.21-.54.17-.65-.06-.17-.06-.17.08-.31l.1-.1a2.29,2.29,0,0,1-.07-.36.32.32,0,0,1-.13,0s-.09,0-.13.08l-.13.11-.11-.27-.25.32L78,39.73c-.17.23-.45.1-.62.27-.07-.07-.14-.16-.2-.16a1.35,1.35,0,0,0-.33.09c-.15,0-.32.17-.46.14a.39.39,0,0,0-.43.17l-.15.17a.88.88,0,0,0-.2-.12,1.55,1.55,0,0,0-.22,0s-.06,0-.09-.05-.17-.06-.23,0-.08.12-.1.18-.21-.06-.28,0a.49.49,0,0,1-.51,0L74,40.6a1,1,0,0,1-.07-.21c0-.2,0-.23.19-.24a.46.46,0,0,0,.19-.08l.06,0,.11.23c.12-.26,0-.5,0-.72l.23-.15a.46.46,0,0,1-.15-.38c0-.27,0-.27.19-.33a3,3,0,0,0,.1.32s.07.14.09.13c.17-.06.2.11.27.2s.2-.06.12-.21-.1-.21.13-.26c.18.4.2.43.27.45.1-.17-.16-.39.08-.58.09.22,0,.47.18.69.2-.24-.06-.48,0-.68l.15.19c.15-.15-.06-.33.09-.46.1.32.1.32.23.33-.07-.4-.07-.4.09-.51,0,.16.08.32.13.49.12-.06.17-.1.11-.22s-.08-.3-.14-.51c.31.1.18.4.36.55,0-.06.06-.11.06-.16a1.87,1.87,0,0,0,0-.25l0,0,.08.2c.16-.07.19-.16.13-.3s-.14-.23,0-.38l.19.1c.11-.18,0-.42.22-.56a3.28,3.28,0,0,0,.41-.42l-.21-.2c0,.24-.31,0-.37.26l0,0c-.15-.09-.25,0-.37.08S77,37,77,37s-.22,0-.33.07-.1,0-.15,0a1.45,1.45,0,0,0-.22.09,2.29,2.29,0,0,0-.21.23c-.14.14-.28.24-.49.13a.19.19,0,0,0-.26.09.6.6,0,0,1-.32.25l-.43.17c0-.08-.09-.21-.15-.22a.33.33,0,0,0-.23.11,1.37,1.37,0,0,0-.17.23c0,.08-.1.2-.18.23a1.16,1.16,0,0,1-.37.07,2.72,2.72,0,0,1-.11-.25l-.3.24a.27.27,0,0,1,0-.17c0-.06.08-.12.07-.16s.07-.15.17-.19,0,.07,0,.1l.07.13c.14-.13.1-.26.09-.39s0-.2.11-.23c.31-.09.54-.4.9-.39h0a.18.18,0,0,0,.09-.31c0-.07-.12-.08-.17,0s0,.09,0,.14c-.18-.1-.27.07-.43.13L73.92,37l-.52.16-.14-.08a3,3,0,0,1-.08-.43c0-.16-.08-.34.07-.48,0,.16,0,.3.06.47.33-.13,0-.38.14-.55l.15.28.57-.29c0-.12,0-.27.17-.29l.17.24.22-.12.14.21.17-.2c0-.13-.22-.24,0-.37,0,.08,0,.15.07.22s.15.23.32.09.08-.08.1-.07c.18.09.25-.05.33-.16l.15-.15c0,.14.09.22.19.15s0-.24,0-.35,0-.12,0-.14-.1,0-.14,0a.85.85,0,0,0-.17.14l-.3-.15.09-.2,0,0-.25.19-.05-.18-.38.2-.3-.27-.7.38c-.13-.13-.38-.14-.38-.45l-.09.13c-.21.35-.31.4-.68.34l0,0,0-.13c.1,0,.22,0,.25-.06s.29-.24.34-.44a.16.16,0,0,1,.14-.08c.05,0,.1.08.12.13s0,.13,0,.19,0,.06.08.09l0,0a.21.21,0,0,0,0-.08.67.67,0,0,1,.44-.81l0,0c.15-.22.2-.5.45-.63l.18.11A3,3,0,0,1,75,33a4.29,4.29,0,0,1,.15-.42c-.33-.07-.34.27-.52.36l-.17-.09a1.72,1.72,0,0,1-.19.3c-.12.12-.26.22-.4.34,0-.09,0-.19,0-.29s-.29.08-.29.13v.23h-.1a1.56,1.56,0,0,0-.17-.18l-.44-.13-.46.28c0-.15,0-.24,0-.33s-.06-.21.09-.27c0,.1.07.18.1.27h.07c0-.18,0-.35,0-.53h0l.09.15A.47.47,0,0,0,73,32.2a2.46,2.46,0,0,1,0-.26h.06l.09.28c.07-.12,0-.29.1-.35s.11-.26.12-.41,0-.27.07-.41l0-.06c.2-.12.16-.32.16-.5a.17.17,0,0,0-.15-.19c-.09.19-.18.37-.28.55s-.31.53-.47.8a.27.27,0,0,1-.07.08l-.61.3L72,31.86c.3,0,.15-.22.2-.34a.91.91,0,0,0,.16-.27l.17.05a1.4,1.4,0,0,1,.38-.71c0-.17.07-.32.11-.48s0-.29-.23-.36a1.5,1.5,0,0,1-.23.41.24.24,0,0,0,0,.34c-.1,0-.2,0-.25.09s-.37.33-.51.52a1.7,1.7,0,0,1-.59.41l-.15-.4a2.1,2.1,0,0,1,.71-.71l.09.08L72.2,30,72,29.88c-.16.11-.28.32-.47.11a.73.73,0,0,1-.51.24L71,30c.15,0,.23-.14.2-.3s0-.08.08-.13.09-.1.09-.15c0-.24,0-.48-.07-.72,0,0-.05,0-.08-.07a.21.21,0,0,1,0-.06l.2-.07c0,.21.07.4.11.58h.07a7,7,0,0,0,0-1.29l.16.08c.13-.22-.1-.39,0-.62a.63.63,0,0,0-.33.39.94.94,0,0,1-.41.55.46.46,0,0,0-.16.15.39.39,0,0,1-.34.22c-.1.27-.19.38-.26.31l.12-.15-.18-.06c0-.1,0-.24.08-.29s.12-.34.14-.51,0-.31,0-.42a.34.34,0,0,0,0-.26,2.3,2.3,0,0,0-.07-.26c0-.1.14-.2.13-.23a1.08,1.08,0,0,0-.25-.18l-.43.82-.3.17a.22.22,0,0,1-.06-.29.21.21,0,0,0,0-.26s0-.09,0-.13a1.23,1.23,0,0,0-.19-.7.8.8,0,0,0-.27,0,.89.89,0,0,0-.18.62,3.92,3.92,0,0,1,.13.49c0,.1-.06.1-.13.07,0-.28-.06-.36-.36-.44a.67.67,0,0,0-.1.21c0,.15,0,.3,0,.45a.49.49,0,0,0,.1.43c0,.05,0,.17,0,.26s0,.3,0,.45l0,.21c-.06,0-.15.09-.19.06a1,1,0,0,1-.25-.22c-.06-.06-.11-.14-.18-.17s-.13-.14-.16-.24a1.79,1.79,0,0,0-.22-.38,1.6,1.6,0,0,0-.32-.2A.69.69,0,0,0,67,28c.09.28.18.57.3.85a.56.56,0,0,1,0,.34c-.32,0-.43-.36-.71-.45-.09.27,0,.49.07.73s0,.5,0,.71c.16.18.35-.07.46.14a.85.85,0,0,1,0,.45c-.25-.1,0-.32-.13-.43,0,.05-.08.12-.13.13a.83.83,0,0,1-.67-.11s0,0-.07,0c-.18,0-.37-.18-.52,0-.5-.36-.56-.39-.76-.39a15,15,0,0,0,.85,1.48l.16-.05.16.23a.63.63,0,0,0,.07-.21c0-.06-.09-.13,0-.2.26.34.26.34.41.36v-.23c.14.1.19.37.46.16-.09.29.29.18.26.45a1.42,1.42,0,0,1-.35,0,2.74,2.74,0,0,1-.74-.13,2,2,0,0,0-.5-.13h-.11c-.13.05-.29-.11-.42,0s0,0-.07,0-.24-.09-.36,0l.18.3.21,0,.09.34s0,0,.1,0l.05-.2c.15.07.15.07.2.17s0,.1.07.11c.2.05.33.27.55.2,0,.12-.07.23,0,.31s0,.18-.13.22a.63.63,0,0,1-.75-.19A.86.86,0,0,1,65,33a3.59,3.59,0,0,1-.34-.17c-.23.17-.27.16-.5,0,0,0-.11-.08-.16-.07-.3.05-.36-.3-.6-.36,0-.25-.21-.22-.39-.23a4.09,4.09,0,0,0,.21,1l.15-.13c-.09.15,0,.23.1.32a.26.26,0,0,1,.06.34l-.54-.47c-.19.12.09.21,0,.34a.91.91,0,0,1-.18-.08c-.25-.15-.26-.15-.38.14L61.9,33l-.35.14a1.89,1.89,0,0,0,.13.33,4.28,4.28,0,0,1,.7,1.18.12.12,0,0,0,.19.08c0-.12-.06-.23-.09-.36.15,0,.18.07.2.18s0,.3.12.32.35.29.56,0c0,.1.08.16.1.23s0,.25.11.32a4.35,4.35,0,0,0,.49.46l.08-.2a1,1,0,0,0,.15.1.27.27,0,0,0,.12,0c0,.12,0,.22,0,.33s-.17,0-.25,0a1.09,1.09,0,0,0-.28.08l.13.36c-.34-.16-.36-.57-.66-.8l0,.28c-.14,0-.13-.22-.3-.19s-.13-.22-.3-.18l0,.3-.08,0c-.14-.2-.25-.43-.55-.41,0,0-.06-.05-.1-.08l-.12-.08,0,0,.21.47c-.31-.15-.25-.59-.55-.68l-.27.18c.24.21.13.55.35.78l.08-.4.28.31s0,0,0,.09l-.1-.16a.32.32,0,0,0,0,.43.94.94,0,0,1,.16.56,1.36,1.36,0,0,0,0,.21s.07.06.13.11,0-.11,0-.14c0-.29-.06-.59-.11-.88s.05-.2.15-.31c.1.25,0,.47.06.71s0,.47.13.7c.21-.13,0-.3.08-.43l.29.24a2.62,2.62,0,0,0,0,.28s.05.06.07.06a.11.11,0,0,0,.08-.07.3.3,0,0,0,0-.13v-.62c.18.09.19.1.2.25a5.43,5.43,0,0,1,0,.57c0,.09,0,.17.17.15,0-.22,0-.45,0-.7.33.18.12.48.2.7a1,1,0,0,0-.14.11,1,1,0,0,0-.12.19l-.31-.21c-.05,0-.14-.1-.16-.08-.19.13-.31,0-.45-.1a1,1,0,0,0-.16-.06l-.06,0c-.12.21-.12.21-.32.11a.23.23,0,0,0-.26,0l-.2.15L61,37.62c-.16.15-.32.05-.5,0l-.07.22c0-.07-.11-.11-.15-.17a.26.26,0,0,0-.3-.11c-.13,0-.12.15-.1.26l0,.06.14,0a1.47,1.47,0,0,1,.23.6l.08-.24h.06a4.57,4.57,0,0,0-.05.52c0,.17-.13.34,0,.56.18-.29.1-.6.21-.9.28.25,0,.58.15.83.06-.07.11-.18.17-.19s.08.14.14.19l.07,0c.2-.22,0-.52.12-.75.19.12,0,.37.19.52,0-.2,0-.37,0-.54l.06,0c0,.05.12.1.14.16s0,.23,0,.34,0,.14.09.16.15.18.14.3A.88.88,0,0,0,62,40a.64.64,0,0,1-.23-.2c-.1-.15-.19-.32-.28-.48s-.1-.16-.23-.08c0,.07,0,.14,0,.21s0,.13,0,.19l-.53-.12c.08.16.12.26.16.35l0,0-.25-.35-.06,0-.25.06a2.64,2.64,0,0,1-.1.3c-.29,0-.4-.36-.69-.4l0,.13c0,.05,0,.09,0,.13a.52.52,0,0,1-.51-.15c-.06,0-.12-.1-.2,0l.12.25-.21.11a1.56,1.56,0,0,0,.14.19.4.4,0,0,0,.16.08l.2.07.18.06a1,1,0,0,0,.16.48c0-.22,0-.38,0-.54s.2,0,.24.09a3.58,3.58,0,0,0,.09.35.72.72,0,0,0,.13.14c0-.24,0-.43-.07-.64h.26c.1.18,0,.4.22.53l0-.29a.46.46,0,0,1,.19.66c-.09,0-.21-.06-.26,0s-.2.06-.3,0-.18-.08-.23,0c0,.32.31.48.29.79h.06l.08-.32c.33,0,.09.4.32.5.14-.17,0-.36,0-.54.3-.13.17.28.34.3l.16-.18a3.42,3.42,0,0,0,.1.45c0,.12,0,.31.18.37,0-.23,0-.45,0-.69a.42.42,0,0,1,.26.39c0,.08,0,.16,0,.25s0,.25-.2.31a.31.31,0,0,1-.28-.06.59.59,0,0,0-.14,0l-.07.23c-.24,0-.24,0-.29.29-.11-.2-.31-.18-.47-.24s-.2-.06-.26.12,0,.08-.06.14l-.48-.12-.2.22.08.09c.18.15.18.15.09.37l-.09.23h0l.5-.51c0,.28-.26.47-.16.79l.28-.8c.14.26-.09.46,0,.72l.22-.56c.26.08.09.33.21.47,0,0,.08-.06.11-.05.19.06.22.06.21-.13s0-.21.08-.25l.14.36h.07l.07-.3c.14.13.08.29.09.43s0,.28,0,.42h0c.05-.11.11-.22.17-.33.16.07.08.15,0,.23a2.63,2.63,0,0,1-.09.3c0,.08-.1.16,0,.26.19-.17.17-.42.29-.62l.21,0c0,.15,0,.27,0,.45a.52.52,0,0,0,.21-.42c0-.12,0-.22.19-.23s.07.15.15.28c0-.14,0-.22,0-.3s-.06-.21.08-.19.11.37.12.52v-.53s.26,0,.31,0c.13.3,0,.63.28.94l.06-.32c.23.08.26.16.19.54a.11.11,0,0,1-.08,0,.48.48,0,0,0-.54,0,.75.75,0,0,1-.78.12c-.12-.06-.21,0-.23.16s0,.09,0,.15l-.29-.09c-.09.11-.18.21-.33.15a6.61,6.61,0,0,1-.7-.26,4,4,0,0,0-1.06-.28c-.11,0-.18.06-.13.17a1.33,1.33,0,0,0,.21.26l0,0c0,.09,0,.18,0,.26h0l.09-.22c.11.09.11.09.12.51l.2-.26.21.16c0-.13.06-.22.08-.31h0c0,.11,0,.22,0,.36.11-.07.09-.29.28-.2,0,.34-.06.69-.08,1h.07c0-.25.11-.51.17-.8.26.25,0,.54.12.79.18,0,.12-.22.2-.3l.33.1c.09-.22.35-.47.34-.7v.78c0-.09,0-.12,0-.17s0-.22,0-.33.09-.16.25-.13c0,.28-.08.55-.12.87.19-.23.13-.51.32-.68a9.09,9.09,0,0,0-.19,1.24,1,1,0,0,0-.39,0c-.14.08-.24.1-.32,0l-.24.17c0,.09,0,.16,0,.24-.21,0-.07-.22-.11-.33a.46.46,0,0,0-.19.39.46.46,0,0,1-.29.44c-.11,0-.19-.18-.33-.09a1.47,1.47,0,0,0-.59-.15s-.07,0-.1-.09-.25-.29-.39-.47a2.54,2.54,0,0,0-.1.25c-.24.1-.37,0-.48-.21s-.11-.18-.25-.15,0,.07,0,.11-.07.2-.2.11a.9.9,0,0,1-.2-.19.78.78,0,0,0-.45-.23l.08.32a1,1,0,0,1-.44-.54v.23c0-.11-.38-.12-.57,0,.18.21.36.42.54.65a.54.54,0,0,0,.12.43l.16,0c.1.11,0,.28.11.35.13-.1,0-.28.12-.39.11.25,0,.52.1.77.16-.09.08-.23.1-.33s0-.25.06-.37c.1.4.1.4.21.47l0-.37c.13,0,.21.07.21.21s0,.17.1.2l0-.31.33.13c-.05.14-.1.24-.15.35.21.13.05.34.12.58a1,1,0,0,0,.09-.2c.05-.26.05-.26.32-.24.07.21-.06.36-.11.55a1.41,1.41,0,0,1-.2,0,.64.64,0,0,0-.59.16.23.23,0,0,1-.17,0c-.18,0-.35,0-.53,0a.22.22,0,0,0-.14.09s0,.11,0,.13a.39.39,0,0,0,.16.07c.13,0,.26.09.38.11s-.06.39.1.51c0-.12.05-.12.06-.12h0s0,0,0,.08c.19-.22.19-.41.39-.32l.06.44c.23-.15,0-.42.21-.55.16.24.05.54.24.77,0-.16,0-.32,0-.51l.26,0c0,.19,0,.36,0,.53s-.13.34,0,.5c0,0,.06-.05.06-.07,0-.3.13-.6,0-.9a.14.14,0,0,1,0-.11.15.15,0,0,1,.11-.06s.06,0,.06.08a5.23,5.23,0,0,1,0,.56c0,.21,0,.43,0,.68.21-.12.18-.31.19-.48l.06-.51q.09.06.09.12c0,.19,0,.37,0,.56s0,.22.16.2c0-.56,0-.56.14-.62l0,.33c.27-.05.32-.12.2-.32,0,0,0-.06,0-.09a.22.22,0,0,1,0-.12.19.19,0,0,1,.15,0,1.06,1.06,0,0,1,.06.19l.07.07.14-.11c-.14-.32-.13-.36.12-.41v.51a.53.53,0,0,1-.42.63,1.42,1.42,0,0,0-.82.55c-.16.21-.34.41-.52.61-.2-.1-.32-.35-.59-.37l-.07.28c-.28-.1-.4-.48-.76-.34,0-.08-.07-.16-.1-.23a.41.41,0,0,0-.31-.26,1.42,1.42,0,0,1-.67-.28l-.1-.07-.25.1a.62.62,0,0,0,0,.53s.08,0,.12,0-.09.3,0,.45c.14-.09,0-.32.21-.38.13.18-.07.47.22.62a4.45,4.45,0,0,1-.05-.47c0-.14.07-.23.16-.21s.11.11.11.19a.37.37,0,0,0,0,.11c0,.2,0,.21.27.23a.2.2,0,0,1,.16.12.81.81,0,0,1,.05.27c0,.08,0,.16,0,.26.19-.11.23-.09.22.08s0,.55,0,.82a.48.48,0,0,0,.14.41.64.64,0,0,0,.07-.16,1.45,1.45,0,0,1,0-.28,5.9,5.9,0,0,1,.09-.72s.06,0,.1,0a3.28,3.28,0,0,0,0,1.16.94.94,0,0,0,.07-.19c0-.16,0-.32,0-.48s0-.18.12-.18a.17.17,0,0,1,.2.15c0,.06,0,.13,0,.2s0,.11,0,.19c.13-.14.13-.14.14-.25,0-.29,0-.31.33-.3l.13.25c.13-.1,0-.3.22-.35.07.22,0,.48.19.71,0-.24,0-.42,0-.64a.32.32,0,0,1,.23.28,1.71,1.71,0,0,0,.09.3h0c0-.1,0-.2.08-.35.21.3,0,.62.21.87l.08-.31h.06c-.06.25,0,.5-.08.77-.19-.11-.38-.18-.54,0s-.24.09-.38,0a1.13,1.13,0,0,0-.52-.2.36.36,0,0,1-.49.3s-.1,0-.16,0l-.52-.64c-.06-.07-.12-.15-.25-.09s0,.14-.05.24l-.28-.32-.22.1a1.8,1.8,0,0,0-1.16-.93c-.17-.16-.19-.44-.41-.6l-.09.13c-.15-.11-.15-.11-.29,0l-.16-.32-.11.08c-.2-.11-.08-.42-.29-.55a.76.76,0,0,0-.07.84,1.35,1.35,0,0,1,.19.73s0,.09,0,.11.12.29.15.44,0,.12.07.23l.16-.31a1,1,0,0,1,.12.28,2.31,2.31,0,0,1,0,.37.42.42,0,0,0,.08.12h0c0-.19,0-.37,0-.57.13,0,.13.12.14.21s.05.41.06.62.11.12.17.16c0,.4.08.79.11,1.17.2,0,.15-.13.22-.22.13.27.09.58.31.82a.86.86,0,0,0,0-.5,1.55,1.55,0,0,1,0-.31.17.17,0,0,1,.07-.1.11.11,0,0,1,.1,0c.06.1.16.18.15.34a3.63,3.63,0,0,0,0,.57H57a.78.78,0,0,0,0-.21c0-.15,0-.3,0-.45s0-.28.15-.29.14.15.16.26,0,.19.15.23c0-.12,0-.24,0-.34l.58,0a1.88,1.88,0,0,0,.23,1l.08,0c0-.26-.07-.52-.11-.82l.2.09c0,.07,0,.16,0,.2.17.2.11.45.15.67a.39.39,0,0,1-.06.32,2.82,2.82,0,0,0-.23.46c-.11.3-.11.3-.42.3h-.36c-.34,0-.69-.08-1,.25-.18-.42-.37-.78-.9-.67,0-.21-.12-.43-.15-.65s-.07-.25-.25-.28-.21-.12-.09-.31c0,0,0,0,0,0-.05-.17-.18-.15-.28-.15s-.09-.37-.34-.32a1.33,1.33,0,0,0-.1.87c.08-.17.13-.3.18-.42.09.34-.14.65,0,1h.06c.05-.18.08-.36.13-.54a.26.26,0,0,1,.07.34,1.93,1.93,0,0,0-.13.55c0,.06,0,.15,0,.21s.06,0,.06.07v.47s-.19-.1-.32-.21,0-.2-.16-.27-.35-.26-.59-.14c-.18-.16-.34-.37-.64-.29,0,0-.1-.08-.16-.09l-.39-.06-.06.24-.4-.06c0,.16.12.2.17.3l-.06.18a.63.63,0,0,1,.31.44c0,.12.11.14.23.1,0,.14-.07.25,0,.36s0,.15,0,.22,0,.21,0,.31.08.06.17.12l-.13-1c.21.05.21.05.22.25s0,.51.07.76c0,.09,0,.15.12.13s-.08-.27.14-.27a.25.25,0,0,1,0,.07c0,.14,0,.28,0,.42-.11,0-.23-.05-.3,0s-.1.16-.16.28a1.28,1.28,0,0,1-.2-.11c-.12-.08-.22-.18-.33-.27s-.15-.11-.19-.09S52,61,51.78,61c-.05.13-.09.25-.13.34s-.29,0-.33.14l.53.33.49.34-.4.18c.22.12.45.15.44.44l.14-.28c.13.07.08.17.08.26a4.87,4.87,0,0,1,0,.54c0,.09,0,.17.15.18a5.74,5.74,0,0,1,.08-.93c.15.27.06.59.21.86.12,0,.1-.09.09-.17s0-.42-.07-.64c.16,0,.22.08.22.21a.48.48,0,0,0,.13.39l.09-.24c.15.13,0,.41.29.44l-.05-.34c.15,0,.23,0,.25.13l.06.42c0,.1,0,.2.17.24,0-.25,0-.47-.06-.69h.05c0,.07,0,.17.06.19s.12.2.12.31l.06.91c0,.11,0,.23.22.24,0-.13,0-.23,0-.34s0-.17.15-.14,0,.33.19.39c.1-.17-.14-.44.16-.54.14.43.14.43.3.44,0-.21-.19-.42,0-.65.08.08.16.15.23.23s0,.24.17.3v-.35c0-.15.08-.2.2-.17s.07.35.3.42c-.05-.19-.08-.36-.12-.53l.31-.05-.16.29c.07,0,.15,0,.17.08a.67.67,0,0,1,0,.57c-.06.09-.12.18,0,.31l.5-.15c0,.22,0,.42.07.63s0,.15.15.11a.78.78,0,0,0,0-.16c0-.21,0-.42,0-.62s0-.19.18-.15c0,.33,0,.66,0,1,0,0,0,.08,0,.11l-.19.21a1.22,1.22,0,0,1-.8-.28,4.54,4.54,0,0,0-.53-.3c-.13.11-.06.39-.33.36s-.35-.16-.44-.38c0-.06-.13-.06-.19,0a.79.79,0,0,0-.08.16,2.44,2.44,0,0,0-1-.37c0,.06,0,.1,0,.15s0,.08,0,.12a.51.51,0,0,1-.54-.17.32.32,0,0,0-.36-.18c0,.1.08.14.1.19a1.11,1.11,0,0,1,.07.16.66.66,0,0,1-.27-.17c-.21-.16-.3-.16-.52,0L52,65.13c-.09.05-.19.15-.26.13-.25-.06-.5.06-.76,0s-.22,0-.27.17a2,2,0,0,0,0,.35l-.22.13.18.48h.06l.06-.38c.12,0,.14,0,.15.13a.37.37,0,0,0,.23.35v-.19c.17,0,.24,0,.26.22a2.38,2.38,0,0,0,.13.49s0,0,.06.06l.18-.15c.24.47.24.47.41.36-.2-.31-.21-.4-.06-.5.09.08.07.3.28.26,0-.13-.16-.26,0-.41l.2.24.06,0c0-.11,0-.22-.08-.34.18-.15.22.1.34.11s.08-.15.19,0l-.12.23c.12.08.26.14.31.24s0,.24,0,.36c.24,0,.28-.2.42-.39l.07.4a.48.48,0,0,0,.49.44c0,.07,0,.18.11.22s.17,0,.25,0,.08.07.13.12c-.21.06-.45,0-.54.22h0c-.2,0-.31.15-.44.27l-.3-.21-.21.2-.33-.3a.19.19,0,0,0-.14,0s0,.09-.06.14a.31.31,0,0,0,0,.09L52,68.4s-.09,0-.11,0-.21,0-.3,0L51.23,68c-.1-.1-.19-.09-.28.06q.13.29.3.6c.28-.14.2.17.3.26l.27,0c0,.18,0,.36.17.48l.26-.05a1.8,1.8,0,0,1,.09.28.17.17,0,0,0,.23.13l-.07-.36c.21,0,.21,0,.26.14a2.27,2.27,0,0,0,.31.77.77.77,0,0,1,.07.24c-.3-.11-.44-.37-.64-.53l-.45.26-.59-.39c-.14-.09-.17-.07-.19.11s-.09.18-.21.14l-.18-.08c-.08,0-.15,0-.22.08l.53.52c.2,0,.24,0,.27.17a1.54,1.54,0,0,1,0,.31.3.3,0,0,0,.33.33,3.46,3.46,0,0,1,0,.73c-.16-.15-.28-.28-.42-.4s-.09,0-.14,0,0,.11,0,.15.19.2.27.29c-.07.37,0,.57.26.64,0,0,.15,0,.17,0,.13-.2.27-.1.41,0s.48.27.76.07c.11.53.12.55.36.53l0-.23.3-.09c.12.12.08.34.27.42.09-.21-.1-.42,0-.63.25,0,.12.42.39.43a.61.61,0,0,1,0-.19,1.93,1.93,0,0,1,0-.24.37.37,0,0,0,.54.11c.09.06.13.2.28.16l-.06-.24.33-.23a3.59,3.59,0,0,0,.12.35c0,.1,0,.28.24.24,0-.15,0-.27-.08-.41l.26-.08.17.31h.08c0-.08,0-.16,0-.24.22,0,.29.11.23.4l.18.1c.09-.17.09-.17.24-.23s.05.32.27.29L57.26,73l.36,0c0,.11.07.21.1.31a1.31,1.31,0,0,1,.06.27c0,.08.19.14,0,.26l-.18-.29a1.57,1.57,0,0,1-.19.27,1,1,0,0,1-.27.16c-.17,0-.13-.35-.38-.26-.19-.14-.3.15-.48.1l-.17-.22a.27.27,0,0,1-.42,0c-.18.22-.37.13-.55,0s-.22-.08-.33.06a1.06,1.06,0,0,0-.09.25,2,2,0,0,1-.35,0,2.3,2.3,0,0,1-.32-.15c-.22.14-.22.14-.43,0,0,0-.06-.06-.09-.06s-.14,0-.16,0A.76.76,0,0,1,53,74c-.15-.06-.15-.31-.34-.27s-.31-.08-.38.13l-.67-.36c-.19.13,0,.29-.05.42-.32.15-.47-.2-.76-.3.08.37.39.44.57.63,0,0,0,0,0,0,0,.31.05.31.34.28a1.59,1.59,0,0,1,.79.09v.26c0-.1,0-.21.14-.25s-.06.32.11.37,0-.3.23-.18-.08.42.17.58l.09-.64c.14.12.14.12.1.59a.5.5,0,0,1-.59.12.52.52,0,0,0-.5,0l-.2-.17-.14.18-.26-.24-.33.17-.24-.21-.25.12-.34-.08c0,.15,0,.19.12.22a.28.28,0,0,1,.18.34c0,.09-.06.19.09.27a2.72,2.72,0,0,1,.07-.33.09.09,0,0,1,.17-.05c.09.11.08.32.28.35a.39.39,0,0,0,.47.24c.11.12,0,.37.22.45.1-.14-.13-.35.12-.5l.19.82c.29-.1,0-.36.16-.48.15.06.15.06.17.17s0,.3.06.45.06.1.09.1.08-.06.07-.14a4.39,4.39,0,0,1,0-.53l.27-.06c.07.49.11.49.11.49V76.7c0,.07.33.11.4.15a.73.73,0,0,0,.24.07c.27,0,.42.17.59.34a.85.85,0,0,1,.72-.19,4.56,4.56,0,0,0,1,.08c.06,0,.12,0,.19,0v.06a1.57,1.57,0,0,1-.37,0c-.18,0-.35-.06-.52-.07s-.33-.06-.42,0-.22.19-.34.27l.14.17a1.86,1.86,0,0,1-.47.11,1.29,1.29,0,0,1-.41-.15c-.11.22-.3.21-.5.18a1.29,1.29,0,0,0-.19,0l-.16,0,0,.31-.15,0c-.16,0-.35-.13-.46-.08s-.3,0-.42-.09l-.37-.27c-.27.18-.27.18-.51,0l-.18-.14a.48.48,0,0,0-.12,0c0,.21.25.26.21.46a2.15,2.15,0,0,1-.32-.41c-.15-.22-.27-.45-.42-.67,0,0-.11-.08-.17-.12l-.11.18c-.34-.2-.39-.65-.74-.84-.15.23.12.38.06.58l-.35,0,.27.33c-.2.23,0,.41,0,.64l.08,0a2.46,2.46,0,0,1,.09-.29c.06-.19.15-.22.3-.09-.38.79-.41.92-.31,1.22L50,77.38c0,.15.07.24.1.33a1.69,1.69,0,0,0-.31,1.47c.19-.21,0-.52.17-.75.11.1.11.1.09.18s-.06.33-.08.5,0,.35,0,.51l-.29.17c0-.14-.07-.25-.11-.41l-.11.18a.73.73,0,0,0,0,.12l-.2-.08c-.32-.13-.32-.13-.35.21H48.8c-.19-.22-.38-.17-.59,0a.77.77,0,0,1-.23.06c-.18,0-.29-.14-.42-.21-.2.11.06.21,0,.32s0,0,0,0l-.82-.11c-.19,0-.19,0-.25.16s-.07.1-.1.15a.33.33,0,0,0-.07.16c0,.19.12.24.35.15l0-.36c.27.06.1.37.31.44l.11-.15.24.14a.84.84,0,0,1,0-.24s0-.08,0-.07.09,0,.1.07a.86.86,0,0,1,0,.16c0,.15,0,.31.1.42a.18.18,0,0,1,0,.11c0,.2,0,.41,0,.62s0,.34,0,.52h.11l.08-.05a4.09,4.09,0,0,1,0-1.26,1.35,1.35,0,0,1,.08.4c0,.23,0,.46,0,.68s0,.18.16.17c.08-.34-.11-.7.07-1a.73.73,0,0,1,.07.24c0,.16.05.31.08.47s.06.16.17.12l-.06-.81c0-.22,0-.22.21-.23.12.55.12.55.25.57,0-.15,0-.29-.05-.43s0-.25.19-.34,0,.25.17.24l.07-.36a.71.71,0,0,1,.17.11,1.4,1.4,0,0,1,.09.17l.07,0,0-.22a3.39,3.39,0,0,1,.17.51c0,.16.1.17.25.06A1,1,0,0,1,50,80c0,.12.06.19.07.26,0,.25,0,.49,0,.74a3.33,3.33,0,0,0,.1.89c0,.13.09.18.22.11,0-.22-.08-.43-.1-.64a4.24,4.24,0,0,1,0-.62c0-.2-.07-.42.07-.61a.36.36,0,0,1,.06.2c0,.3,0,.6.06.9s.1.6.15.9a.19.19,0,0,0,.23.18l0,0-.12.18c0,.13.22.18.2.39a1.83,1.83,0,0,0-.4-.28c-.18-.06-.21-.21-.27-.34-.39.08-.39.08-.37.47,0,0,0,0,0,.09-.19,0-.51-.32-.51-.22v.27c0-.05-.25-.16-.32-.12a1.41,1.41,0,0,1-.58,0c0,.09,0,.17,0,.3l-.52-.2c-.05.19-.25.09-.36.19.08.22.3.16.44.23s-.06.42.18.55c0-.23,0-.45.08-.66a.66.66,0,0,1,.32.52v-.09a.5.5,0,0,0,.2.37c0-.2-.07-.35-.08-.5s0-.34.14-.36c-.06.76,0,.9.18,1,0-.32-.06-.62-.08-.93H49c.21.25,0,.65.31.92a1.2,1.2,0,0,0,0-.24c0-.18,0-.36-.08-.54s0-.14.13-.15c.13.34.28.67,0,1a.06.06,0,0,1,0,0l.19,0c.11.37.11.37.26.33,0-.19-.2-.38,0-.58.18.2,0,.52.25.73v-.39c0-.15,0-.3,0-.45s0-.21.17-.21a1.11,1.11,0,0,1,.14.56,1,1,0,0,0,.19.44h.05l-.13-1c.17,0,.25,0,.27.19s.08.42.13.64.05.16.17.14a1.21,1.21,0,0,0,0-.19c0-.25-.09-.5-.13-.75,0-.05,0-.11.07-.17l.15.09s0,0,0,.05c.12.31.23.63.35.94a.5.5,0,0,0,.08.12,3.66,3.66,0,0,0-.18-1.13l.3-.07c.05.23.11.44.16.67l.3.51.05,0a2,2,0,0,0-.08-.35.27.27,0,0,1,.08-.31,3.37,3.37,0,0,1,.31-.21c.13.29.25.55.35.82a.74.74,0,0,1,0,.25H52.8c0-.14-.09-.28-.15-.41s0-.3-.19-.39,0,.07,0,.1a4.47,4.47,0,0,0,.34,1.13s.09,0,.16.07c0-.16,0-.28-.06-.42.15.05.17.16.21.25l.17.48c0,.12.08.24.22.29,0-.13,0-.25,0-.41.25.14.08.37.21.51h.19c.11.11.12.31.38.24a1.05,1.05,0,0,1-.24-.89s0-.08,0-.12-.05-.21-.12-.26-.17,0-.23.09,0,0-.07,0c0-.22,0-.44.22-.58l.57.7a4,4,0,0,0,0,.47c0,.12.06.13.2.06,0-.12-.11-.26-.07-.35a1.71,1.71,0,0,0,0-.38.88.88,0,0,0-.13-.51,1.59,1.59,0,0,1-.05-.28l.37.08c.1.14-.06.33.14.47a2.47,2.47,0,0,0,0-.93l-.12.28c-.08-.16-.15-.26-.22-.39a.77.77,0,0,1,.57-.08,1.8,1.8,0,0,1,0,.92l.23.26c.07-.09-.12-.25.12-.3a2.4,2.4,0,0,0,0,.28,4.94,4.94,0,0,0,.1.53s.07.07.14.14l0-.36c.15.66.15.66.33.69l-.08-.7.26-.14-.07.32a3,3,0,0,1,.18.25c.06.08,0,.21.22.19l-.06-.44.27-.25a3.65,3.65,0,0,0,.13.5c0,.1.1.14.18,0a1.59,1.59,0,0,1,0-1.38l0,.2.27,0c0,.2.09.39,0,.58h-.07c0-.12-.09-.24-.14-.37a.72.72,0,0,0,0,.39c0,.11.12.09.18.14a.51.51,0,0,1,.17.24c.08.23.13.47.2.71,0,0,.06.08.1.12l0,0c0-.32-.07-.65-.11-1l.28-.15c0,.13,0,.22,0,.32,0,.28.05.56.08.85h0l.13,0c0-.23-.11-.45.14-.6a1.92,1.92,0,0,0,.12.25.1.1,0,0,0,.09,0,.16.16,0,0,0,.06-.12s0-.08-.05-.12a1.56,1.56,0,0,1-.13-.54l.58-.45c.09.13.18.29.28.45.11,0,.16-.07.15-.2a4,4,0,0,0-.1-.5.41.41,0,0,1,.17-.53c.12-.08.12-.18.12-.31s-.08-.36-.08-.54v-.28c0,.14.18.27.18.41a7.11,7.11,0,0,1-.06,1.53.35.35,0,0,0,.14.39c.24-.13,0-.28.05-.45l.44-.3c0-.15.09-.22.21-.3l.19.28V84c0-.15,0-.25.22-.24l0,.66a.4.4,0,0,1-.25.42c-.08-.07,0-.22-.18-.26-.1.12,0,.25-.06.38a1.76,1.76,0,0,1-.08.37c.09.1.18.07.28,0s.14-.18.27-.13,0,.28,0,.41c.16,0,.17-.1.16-.21s0-.21,0-.24.21-.4.38-.54l0,0c0,.06.09.1.16.21a.85.85,0,0,0,.07-.26,4.52,4.52,0,0,0,0-.52,1,1,0,0,1,.26-.58,3.87,3.87,0,0,0,.06.61h0s0,.06.07,0c.18.15.37.33.54.21.18.22,0,.57.3.77a6.68,6.68,0,0,0-.08-.83c-.06-.25.09-.41.15-.61.13.26.06.54.13.8a2.51,2.51,0,0,0,.17.83,1.38,1.38,0,0,0,0-.75.91.91,0,0,1,.2-.62c0,.15,0,.28.05.41,0,.38,0,.76.08,1.13a.47.47,0,0,0,.06.15.48.48,0,0,0,0-.21c0-.36,0-.72,0-1.08s0-.3.3-.42c0,.11,0,.2,0,.3l.12,1a.79.79,0,0,0,.08.16c.1-.11.07-.2.06-.31,0-.35-.16-.71.1-1,0,0,0,0,0,0l-.2.08c0-.16,0-.29.08-.41a.66.66,0,0,1-.06-.7c0,.1,0,.22.11.27a.33.33,0,0,1,.12.25l.21,1.48.07.27c.17-.19.08-.35.06-.51s0-.34,0-.51a1.69,1.69,0,0,1,.08-.5c.05-.15,0-.33.11-.48.1.25,0,.52.21.76a1.2,1.2,0,0,0,0-.17c0-.23,0-.45,0-.68s.07-.37.29-.4a1.28,1.28,0,0,1,.86.14l.82.5a1,1,0,0,1,0,.39,1.34,1.34,0,0,1-.25.32.9.9,0,0,0,.09.57,1.47,1.47,0,0,1,.1-.3s.07,0,.12,0l0,.24.18,0c.06.26,0,.57.31.78,0-.22-.06-.39-.08-.55l.34-.26a1.85,1.85,0,0,0-.11.76,1.56,1.56,0,0,0,.25.75l.19-.15a.53.53,0,0,1,.1.14A5.86,5.86,0,0,1,68.77,87a5.54,5.54,0,0,0,0,.71c0,.53,0,1.06,0,1.59,0,.1,0,.21,0,.31v1.14c0,.15,0,.3,0,.45,0,.47,0,1-.05,1.42s-.07,1-.11,1.47A4.75,4.75,0,0,1,68,95.9s-.07.07-.12.12c-.08-.23,0-.5-.33-.53l-.13-.61c-.08.05-.13.09-.13.13s0,.36,0,.54c0,.4,0,.79.06,1.19,0,.19-.06.23-.3.22,0-.1,0-.2-.15-.23a.28.28,0,0,0-.28,0,3.18,3.18,0,0,1-.37.18c-.07-.21-.17-.37,0-.58-.46.05-.43-.32-.5-.6-.19.18-.13.39-.16.6.13.07.29.11.37.22A1.2,1.2,0,0,1,66,97v0l0,0-.2-.13c0,.09,0,.15,0,.2l-.43.14a7.15,7.15,0,0,0-.77.29,2.88,2.88,0,0,1-1.34.38A.25.25,0,0,0,63,98a2.25,2.25,0,0,0-.13.37A2.83,2.83,0,0,1,64,98.12a.76.76,0,0,0,.59-.24,1.23,1.23,0,0,1,.44-.23c.08,0,.19-.12.25-.09s.36,0,.53,0c.18.26.12.62.41.81,0-.28-.11-.57-.17-.88a.4.4,0,0,1,.24.33c0,.17.07.35.11.53s.09.18.22.1c0-.26-.09-.51-.14-.77.25,0,0,.27.24.27l.11-.33c.23,0,.23,0,.23-.26s0-.27.29-.31c0,.12,0,.24,0,.33l.39.18.41.13c0,.16-.13.15-.25.11a.42.42,0,0,0-.52.19l1.16.07,0,0-.22-.14a.43.43,0,0,0,0-.07.33.33,0,0,1,.49-.16.29.29,0,0,0,.24,0,1.09,1.09,0,0,1,.62,0,.36.36,0,0,1,.28.21.17.17,0,0,1,0,.07l-.23,0a3.13,3.13,0,0,0,.66.33l.8.29a.62.62,0,0,0,.33,0,2.08,2.08,0,0,1,.86-.07c.21,0,.42,0,.63,0a2.6,2.6,0,0,1,.88,0,.11.11,0,0,0,.1,0,.4.4,0,0,1,.38,0c.46.12.94.07,1.41.16a.52.52,0,0,0,.17,0,.12.12,0,0,0-.08-.09,5.64,5.64,0,0,0-1.36-.18.29.29,0,0,1-.3-.18l1.42.21s.06,0,.12-.07l-.17-.09c-.3-.06-.59-.14-.89-.18s-.82-.11-1.24-.13a1.75,1.75,0,0,1-1-.39,1.73,1.73,0,0,1-.45-.52,5.23,5.23,0,0,1-.77-1.78c0-.19-.09-.37-.12-.56a.85.85,0,0,1,0-.44.84.84,0,0,0,0-.47,3,3,0,0,1-.05-.42c0-1.91,0-3.82,0-5.73,0-.27,0-.27.27-.35,0,0,.05,0,.06,0-.06-.19-.11-.34-.17-.51l.27-.23.07.25c0,.09,0,.18.15.15a.12.12,0,0,1,.07,0q.11.14.21.3l.24,0a1.49,1.49,0,0,1,0,.18c.05.16.05.38.16.47s.13.26.15.4,0,.26.07.39.06.09.12.18v-.37l0-.65c0-.1,0-.14.14-.16A1.28,1.28,0,0,1,73,88c0,.24,0,.47.08.71,0,.07,0,.18.18.11,0-.13,0-.27,0-.4a.47.47,0,0,1,.26-.53c.13.33,0,.71.19,1a.21.21,0,0,0,.07-.25.29.29,0,0,1,.06-.22,5,5,0,0,1,.42-.38.86.86,0,0,1,.19.61,3.52,3.52,0,0,0,0,.56.84.84,0,0,0,0,.17,3.73,3.73,0,0,0,.07-.56c0-.17.12-.34.18-.52,0,0,.06,0,.06.06,0,.37,0,.73,0,1.1,0,.08,0,.12.11.11,0-.69,0-1.37,0-2.07.18.16.18.18.18.32,0,.55,0,1.1,0,1.65,0,0,0,.09.06.13h0c0-.45,0-.9,0-1.36.18.13.18.13.31,0l.26.42.16-.23a2.62,2.62,0,0,0,.11,1c.14-.43.08-.88.18-1.33,0,.32.09.65.14,1h0l.08-.87.19,0c0,.26,0,.49,0,.73s0,.17.14.15c0-.26,0-.52,0-.77s.07-.5.11-.75c.12.29,0,.61.25.86a4,4,0,0,0,0-.69.75.75,0,0,1,.17-.66,1.83,1.83,0,0,1,0,.21c0,.27,0,.55.05.82,0,.1,0,.19.15.22a5.61,5.61,0,0,1,0-1.23c.19,0,.16.19.16.3s0,.44,0,.66a.44.44,0,0,0,.17.39c0-.46,0-.86,0-1.29l.24.07a3.84,3.84,0,0,0,.15,1,.24.24,0,0,0,.09-.15c0-.2,0-.4,0-.6s0-.23,0-.36c-.16-.08-.08-.3-.21-.44,0,.12,0,.23-.06.37-.07,0-.15,0-.15-.07s-.15-.22-.3-.24-.08-.07-.12-.1l.28-.2c0-.19,0-.32,0-.46s.08-.54.09-.82a.42.42,0,0,1,.32-.41c.08.32-.13.58-.1.88s-.14.58,0,.87a3.28,3.28,0,0,0,.08-.41,2.71,2.71,0,0,1,.17-.77.8.8,0,0,0,.11-.6c.13,0,.16,0,.15.13s-.07.35-.09.53,0,.43-.06.65a.31.31,0,0,0,.19.31c0-.22,0-.41,0-.59l.06,0s.09.11.08.14a.5.5,0,0,0,.08.46.46.46,0,0,1,0,.21c0,.22.07.44.1.66,0,0,0,0,.08.05.14-.3,0-.64.17-.93.14.25,0,.53.11.8.18-.38,0-.81.25-1.21.08.43-.1.85.16,1.19a13.9,13.9,0,0,1,.16-1.43c.19,0,.24.06.23.24s0,.64-.07,1,0,.22.11.39c.12-.37,0-.78.25-1.12.22.07,0,.23.07.34s0,.28.07.4,0,.28.13.35c.09-.12,0-.23,0-.33s0-.25.12-.3c0,.45,0,.45.15.52.11-.22,0-.49.11-.7.14.12.12.12.11.22,0,.28-.09.56-.13.84,0,0,0,.07,0,.08a.17.17,0,0,0,.11.06.12.12,0,0,0,0-.08c0-.18,0-.36,0-.53a1,1,0,0,1,0-.24,1.08,1.08,0,0,1,.1.35c0,.12.07.16.19.11a1.4,1.4,0,0,1,0-.35.64.64,0,0,0-.07-.41.43.43,0,0,1,.12-.66c.09.06,0,.25.21.26s.2.1.24.23.07.08.11.12l0,0,0-.31.19-.05a10.55,10.55,0,0,0,.1,1.38.54.54,0,0,0,.12-.24c0-.21,0-.43,0-.65a1.92,1.92,0,0,1,.11-.81.32.32,0,0,1,.15.3c0,.29,0,.58-.06.88a3.92,3.92,0,0,0,0,.59s.06.08.1.13a.29.29,0,0,0,0-.1c0-.27,0-.55,0-.82s0-.72.07-1.08c0-.1,0-.21.2-.19a6,6,0,0,0,.12,1.74c.15,0,.13-.12.11-.21s0-.25-.06-.39c0-.39,0-.39.35-.29,0-.27,0-.53-.08-.81l-.07.11-.07,0c-.14-.14-.09-.38-.28-.49s0-.16.1-.16a1.57,1.57,0,0,1,.23,0,.28.28,0,0,1,.3-.21c.14,0,.15.14.11.27s0,.12,0,.17,0-.35.27-.28c.07.32-.06.65,0,1h.06c0-.27.07-.55.11-.84L85,85c.06,0,.11.06.18.09a2.77,2.77,0,0,0-.09.54c0,.17-.12.33,0,.56.08-.37.15-.69.23-1l.29.15c.1,0,.11.12.11.21l-.06.84v.14h.06c0-.17.08-.36.14-.53s0-.37.14-.59c0,.4-.12.73-.06,1.07.21-.29.14-.67.34-1,.12.3-.08.64.1.94.15-.24,0-.57.29-.74,0,0,0,0,0,0a.42.42,0,0,0-.1-.38c.3.06.31.07.29.33,0,.1-.06.21.1.21,0-.25.08-.48.12-.75l.19.22c0-.12.05-.2.07-.3l.55.34c0-.23,0-.42-.06-.63L88,84.6c0,.08,0,.13-.05.18s.19,0,.21.1c.08.25.33.36.35.66,0,0,0,.06,0,.13V85s.38,0,.51-.06c0,.47.09.62.27.75a2.3,2.3,0,0,0,0-.46c0-.16.19-.29,0-.46-.16,0-.32.11-.57,0,.16-.1.26-.19.37-.25s0-.07,0-.08c-.2,0-.4,0-.59,0,.16-.22.46.33.65-.48h-.15c0-.12,0-.23.07-.35l.24,0c0,.11,0,.2.09.34a1.08,1.08,0,0,1,.39-.59,3.19,3.19,0,0,0,0,1.27,1,1,0,0,0,.14-.61,1.26,1.26,0,0,1,.1-.64c.06-.1.1-.2,0-.31s0-.13,0-.21c.19,0,.23.09.23.23s0,.42,0,.63a.76.76,0,0,0,0,.19,3.24,3.24,0,0,0,.18-1c.11.11,0,.29.14.37s.06,0,.06-.08c0-.29,0-.58,0-.87a.68.68,0,0,1,.11-.47l-.17-.22c.16-.05.24,0,.26.12a2.57,2.57,0,0,0,.06.4s0,.09.12.18c0-.27,0-.46,0-.69a.45.45,0,0,0,.16.26c.08-.37.08-.37.22-.37s0,.29.17.37a.86.86,0,0,0,0-.57.24.24,0,0,1,.09-.29c.07,0,.17-.09.16-.22S91.75,81,91.62,81ZM79.57,60.5a.85.85,0,0,0,.09.23.39.39,0,0,0,.19.12s.08-.1.15-.19c-.17,0-.26,0-.25-.19s.19-.19.32-.27c0,.13,0,.3.24.28L80,60.9S80,61,80,61c-.2-.08-.25.15-.41.2a.71.71,0,0,1-.15-.54S79.51,60.55,79.57,60.5ZM58.81,58.21c0-.13,0-.24,0-.38l.29.09C59,58.12,59,58.12,58.81,58.21Zm9.71-28.87-.14-.45.19-.1A.75.75,0,0,1,68.52,29.34Zm4.42,7.9c-.25-.23-.24-.31,0-.57,0,.18.07.36.27.4Zm9.71,48.5-.06,0a.88.88,0,0,0-.29-.84c-.11-.13-.21-.26-.31-.4s0-.08,0-.15a.61.61,0,0,1,.13.15,1.88,1.88,0,0,0,.46.55.28.28,0,0,1,.08.11A2,2,0,0,1,82.65,85.74ZM88.93,84h-.21c.08,0,0-.44.15-.77C89,83.41,88.92,83.71,88.93,84Z"/><path class="cls-9" d="M55.66,84.7l-.09,0,.08.36.06,0Z"/><path class="cls-9" d="M72.21,98.14l-.06.18.24,0Z"/><path class="cls-9" d="M53.48,73.84l0,.08.26.14,0-.07Z"/><path class="cls-9" d="M69.13,97.45l0,0-.17.16C69.11,97.62,69.08,97.49,69.13,97.45Z"/><path class="cls-9" d="M80.39,98.35c.07,0,0,.09,0,.08-.32-.06-.64-.1-.95-.19a4.94,4.94,0,0,0-1.38-.19c-.15,0-.3,0-.36.19,0,0-.09.06-.14.06a3.27,3.27,0,0,1-.44,0c-.28,0-.36,0-.47.31l0,.11c0-.06-.14-.12-.13-.16.05-.29-.19-.35-.35-.39-.62-.15-1.26-.27-1.89-.39-.21,0-.43,0-.65-.06s-.17-.05-.26-.06a1.81,1.81,0,0,0-.4,0,.2.2,0,0,1-.24-.18c.21,0,.43.11.62-.09-.16-.15-.34,0-.53-.09l.47-.14a4.3,4.3,0,0,1,.57-1.9,7.18,7.18,0,0,0-.28,1.73h.24c.07,0,0-.52.33-.69,0,.2,0,.4,0,.58a.52.52,0,0,0,0,.18c0,.22,0,.22-.2.3-.08-.06-.11-.22-.26-.14s-.11.07-.1.1a.31.31,0,0,0,.08.15.11.11,0,0,0,.08,0,5.23,5.23,0,0,1,1.53.13.69.69,0,0,0,.18,0c0-.08,0-.2,0-.22a.28.28,0,0,1-.1-.4,3.64,3.64,0,0,1,.43-.6s.06,0,.12,0l-.37.65c.25.15.18.39.2.62.21.06.42.12.63.16.06,0,.14-.06.22-.11.08.27.27.27.5.24a4.28,4.28,0,0,1,1.78.08c.35.09.71.13,1.07.19.07-.14.08-.31.27-.33s.08-.11.14-.19a3.56,3.56,0,0,0-.88-.16,1.64,1.64,0,0,0-.22,0,2,2,0,0,0-1.2.09c-.19.07-.3,0-.44-.12a.2.2,0,0,1,.23-.16,2.52,2.52,0,0,0,.88-.16c-.07-.29.12-.48.17-.72a7.32,7.32,0,0,0-1.43.59l-.09.62c-.05,0-.14,0-.16-.07a.39.39,0,0,1-.06-.26.74.74,0,0,1,.08-.29.36.36,0,0,1,.15-.15l.41-.19a.93.93,0,0,0-.51,0,3.38,3.38,0,0,1-.42.13c-.2,0-.16.26-.29.35-.11-.22-.1-.29.08-.39a2.39,2.39,0,0,1,1.11-.3,1.59,1.59,0,0,0,.38-.06.35.35,0,0,0,.19-.1.54.54,0,0,1,.61-.21s.12,0,.21,0a2.53,2.53,0,0,1-.25,1.13.67.67,0,0,0,.68-.82l-.2.43c-.11-.19-.09-.28.15-.67,0-.23-.23-.43-.13-.69a1.23,1.23,0,0,1,0,1.82l.93.14.54-.46c.09.28-.28.3-.16.56.08.07.14,0,.23-.09l.85-.76a.21.21,0,0,1,.1,0c.09.08.07.15,0,.22s-.31.34-.46.52a.38.38,0,0,0-.09.36l1.08.47c.19.08,0,.13-.07.37a3.15,3.15,0,0,0-1.48-.64v.47c.79.08.39.16.5.23s.07,0,.06.07a.8.8,0,0,1-.25-.11,1.1,1.1,0,0,0-.7-.22c.13-.2.33-.07.5-.09a1.72,1.72,0,0,0,0-.32s0-.11-.07-.12a.14.14,0,0,0-.15,0A.84.84,0,0,0,80.39,98.35Z"/><path class="cls-9" d="M62.19,97.16a4.77,4.77,0,0,0,1.55-.42l0-.41.19.17.16-.14.09.16a.26.26,0,0,0,.19-.26,3.81,3.81,0,0,0,0-.59,3.32,3.32,0,0,0-.27-1,.35.35,0,0,1,.07-.4.8.8,0,0,1,.12.18,3.58,3.58,0,0,1,.26,2L63.37,97l0,.46c-.24,0-.25,0-.24-.38l-.36.14,0,.22c-.08.06-.15.07-.2,0s-.22-.16-.38-.13a4.25,4.25,0,0,1-.62.12,2.42,2.42,0,0,1-.46-.06,1.37,1.37,0,0,0-.35,0c-.29.07-.56.18-.85.25a4.22,4.22,0,0,1-.62.1.68.68,0,0,1-.28-.07v-.06c.06,0,.13-.09.19-.08a3.83,3.83,0,0,0,1.46-.2,1.71,1.71,0,0,1,.81,0,.73.73,0,0,0,.51-.09c-.08-.21-.17-.4-.24-.6s-.19-.36-.17-.59C61.94,96.22,62,96.42,62.19,97.16Z"/><path class="cls-9" d="M71,98.81h.15l.91.06,1,.1h.22a.47.47,0,0,1,.24,0,.82.82,0,0,0,.55.1.49.49,0,0,1,.42.08l.08,0c.33-.13.63.06.94.09a.22.22,0,0,1,.23.16c0,.1.17.15.3.14s.4,0,.6,0v.06a.27.27,0,0,1-.13,0l-1.18-.05a1.53,1.53,0,0,1-.26-.08,1.55,1.55,0,0,0-.23-.07,1.38,1.38,0,0,1-.69-.16.17.17,0,0,0-.14,0c-.21.09-.4-.12-.61,0-.3-.24-.65-.1-1-.14-.14,0-.27-.07-.41-.09l-.88-.15a.35.35,0,0,1-.13-.05Z"/><path class="cls-9" d="M72.53,99.64s.06-.08.1-.09c.27,0,.54-.09.82-.11a.27.27,0,0,1,.22.08c.11.23.31.21.49.23l1.1.08a.34.34,0,0,1,.14,0c0,.12-.07.13-.16.13l-1-.08a1.29,1.29,0,0,0-.48,0,.29.29,0,0,1-.26-.13.3.3,0,0,0-.31-.11l-.62,0Z"/><path class="cls-9" d="M65.25,96.39l-.36-.08c0-.35-.24-.7,0-1.06h.07l.12.43.2,0A1,1,0,0,1,65.25,96.39Z"/><path class="cls-9" d="M76.24,97.64c-.12,0-.17-.06-.17-.17a2.58,2.58,0,0,1,0-.39c.06-.34.12-.69.19-1a.33.33,0,0,1,.24-.3c-.06.33-.12.65-.16,1S76.29,97.32,76.24,97.64Z"/><path class="cls-9" d="M66.56,96.19c0-.38,0-.75-.07-1.13,0,0,.07-.1.1-.16a2.25,2.25,0,0,1,0,1.29Z"/><path class="cls-9" d="M79.24,98.71c-.29.13-.54,0-.81,0a4.53,4.53,0,0,1-.81-.12.29.29,0,0,1,.13,0,3.52,3.52,0,0,1,1.11.13Z"/><path class="cls-9" d="M87.3,71.55c.12.13.28.23.29.45a.5.5,0,0,0,.12.19s.1.1.18.2c-.09,0-.16.06-.19,0a.54.54,0,0,1-.28-.37,1.26,1.26,0,0,0-.13-.26C87.24,71.72,87.18,71.63,87.3,71.55Z"/><path class="cls-9" d="M78.9,86.68l.23,1.08c-.07,0-.14,0-.16,0A1.69,1.69,0,0,1,78.9,86.68Z"/><path class="cls-9" d="M74.37,96.47a2.65,2.65,0,0,1,.06.83c-.16,0-.2-.08-.24-.18A.8.8,0,0,1,74.37,96.47Z"/><path class="cls-9" d="M67.21,98.53c.17-.23.38-.06.58-.08a3.76,3.76,0,0,1,.58,0A1.78,1.78,0,0,1,67.21,98.53Z"/><path class="cls-9" d="M72.59,96.22c0,.26.06.5.08.73,0,0-.08.07-.13.09s-.08,0-.08-.06a.78.78,0,0,1,0-.33C72.46,96.51,72.41,96.32,72.59,96.22Z"/><path class="cls-9" d="M64.2,97.24a1.14,1.14,0,0,1,1-.26l-1,.34Z"/><path class="cls-9" d="M74.94,96.61c0,.25,0,.45,0,.65,0,0-.07.1-.1.1a.16.16,0,0,1-.12-.09A.8.8,0,0,1,74.94,96.61Z"/><path class="cls-9" d="M81.73,87.34c.12.19,0,.49.3.64-.13,0-.22.12-.28.1s-.09-.12-.11-.2A.61.61,0,0,1,81.73,87.34Z"/><path class="cls-9" d="M80.53,99.19c-.29.1-.55,0-.86-.08C79.86,98.94,80.12,99,80.53,99.19Z"/><path class="cls-9" d="M92,82.05a1.1,1.1,0,0,1-.12-.79A.78.78,0,0,1,92,82.05Z"/><path class="cls-9" d="M92.22,81a1.67,1.67,0,0,1,.17.92A1.08,1.08,0,0,1,92.22,81Z"/><path class="cls-9" d="M89,85.15c.14.18.09.4.13.6,0,0,0,.11-.09.15A1.08,1.08,0,0,1,89,85.15Z"/><path class="cls-9" d="M63.55,96.71a.7.7,0,0,1-.21-.54s.06-.06.09-.1c.16.15.15.34.2.51S63.59,96.65,63.55,96.71Z"/><path class="cls-9" d="M64.36,96.81a3,3,0,0,1,1-.19A1.8,1.8,0,0,1,64.36,96.81Z"/><path class="cls-9" d="M81.53,99.08a.85.85,0,0,1,.52.37C81.72,99.45,81.57,99.34,81.53,99.08Z"/><path class="cls-9" d="M71.73,29.12l-.07-.75a.15.15,0,0,1,.15.18c0,.19.12.4,0,.58Z"/><path class="cls-9" d="M58.91,85.15c.11.15.21.31.31.46-.1.12-.2.07-.28,0A.42.42,0,0,1,58.91,85.15Z"/><path class="cls-9" d="M63,96.09a1.55,1.55,0,0,1,.05.8A1.22,1.22,0,0,1,63,96.09Z"/><path class="cls-9" d="M72.79,97c0-.12,0-.18,0-.25s0-.11,0-.16l.33-.15C73.1,96.7,73.05,96.9,72.79,97Z"/><path class="cls-9" d="M80.06,96.69l-.21.65c0-.09-.11-.13-.11-.18S79.9,96.72,80.06,96.69Z"/><path class="cls-9" d="M47.8,84.16l-.08-.59A.38.38,0,0,1,47.8,84.16Z"/><path class="cls-9" d="M67.28,97.15l.08.58c-.18,0-.24-.07-.21-.24a.09.09,0,0,1,0,0C67.19,97.35,67.23,97.27,67.28,97.15Z"/><path class="cls-9" d="M74.28,34l0,0s.1,0,.12,0a1,1,0,0,1,0,.51C74.26,34.37,74.35,34.15,74.28,34Z"/><path class="cls-9" d="M74.12,34.9a.66.66,0,0,1-.15-.59C74.12,34.44,74.16,34.58,74.12,34.9Z"/><path class="cls-9" d="M74.75,39.62l.2.44C74.73,40,74.65,39.89,74.75,39.62Z"/><path class="cls-9" d="M66.11,96.3c0-.19,0-.34.13-.47C66.34,96.17,66.34,96.19,66.11,96.3Z"/><path class="cls-9" d="M51.44,72.34l.07.46C51.27,72.64,51.25,72.5,51.44,72.34Z"/><path class="cls-9" d="M77.23,41.28c-.24-.14-.25-.2-.1-.54Z"/><path class="cls-9" d="M72.2,96.79l.07-.47c.12.25.12.32,0,.48Z"/><path class="cls-9" d="M86.21,67.43l.2.35C86.2,67.8,86.11,67.69,86.21,67.43Z"/><path class="cls-9" d="M63.91,97.41s-.07,0-.1,0a.61.61,0,0,1-.14-.07c.11-.15.17,0,.24,0Z"/><path class="cls-9" d="M82.33,45.86l.14-.15.15.13h-.29Z"/><path class="cls-9" d="M66.78,96.45l.17-.13,0,0-.16.14Z"/><circle class="cls-5" cx="140.45" cy="58.7" r="6.6"/></svg>