<svg id="turbine-blue" xmlns="http://www.w3.org/2000/svg" viewBox="0 0 230 105"><defs><style>.cls-1,.cls-2,.cls-4,.cls-7{fill:none;}.cls-1,.cls-2,.cls-7{stroke:#bbcedb;}.cls-1,.cls-2,.cls-4,.cls-5,.cls-7{stroke-miterlimit:10;}.cls-2{stroke-width:1.5px;}.cls-3{fill:#f8f9fc;}.cls-4,.cls-5{stroke:#2f6693;}.cls-5{fill:#f2f3f4;}.cls-6{fill:#58797f;}.cls-7{stroke-width:2px;}.cls-8{isolation:isolate;}.cls-9{fill:#c4d4df;}</style></defs><line class="cls-1" x1="105.89" y1="28.3" x2="81.29" y2="45.5"/><line class="cls-1" x1="83.09" y1="63" x2="105.99" y2="78"/><ellipse class="cls-2" cx="119.19" cy="86.4" rx="16.6" ry="15.5"/><ellipse class="cls-2" cx="119.19" cy="20.1" rx="16.6" ry="15.5"/><ellipse id="backgr" class="cls-3" cx="48.79" cy="50.8" rx="40.7" ry="37.7"/><g id="turbine"><rect class="cls-4" x="44.29" y="54" width="11.1" height="35"/><polygon class="cls-4" points="50.19 14.2 62.69 47.2 37.69 47.2 50.19 14.2"/><polygon class="cls-4" points="14.88 70.1 41.78 42.6 50.59 60.8 14.88 70.1"/><polygon class="cls-4" points="83.48 70.6 48.88 60.2 59.19 43.2 83.48 70.6"/><ellipse id="turbineelipse" class="cls-5" cx="49.79" cy="51.2" rx="13" ry="11.9"/></g><ellipse class="cls-6" cx="50.09" cy="51.4" rx="0.9" ry="1"/><ellipse class="cls-7" cx="49.19" cy="51.3" rx="41.3" ry="37.9"/><g class="cls-8"><path class="cls-9" d="M136.48,42.77l2.14-.19a4.74,4.74,0,0,0,.71,2.12A3.87,3.87,0,0,0,141.06,46a7.09,7.09,0,0,0,4.93.13,3.26,3.26,0,0,0,1.48-1.06,2.44,2.44,0,0,0,.49-1.48,2.28,2.28,0,0,0-.47-1.41,3.45,3.45,0,0,0-1.55-1,30.44,30.44,0,0,0-3.05-.84,16,16,0,0,1-3.32-1.07,4.6,4.6,0,0,1-1.83-1.6,3.87,3.87,0,0,1-.61-2.14,4.36,4.36,0,0,1,.74-2.43A4.57,4.57,0,0,1,140,31.4a8.15,8.15,0,0,1,3.15-.58,8.66,8.66,0,0,1,3.37.61,4.88,4.88,0,0,1,2.24,1.81,5.17,5.17,0,0,1,.85,2.71l-2.18.16a3.57,3.57,0,0,0-1.19-2.46,4.68,4.68,0,0,0-3-.83,4.76,4.76,0,0,0-3,.76,2.26,2.26,0,0,0-1,1.82,2,2,0,0,0,.67,1.52,9.05,9.05,0,0,0,3.43,1.23,22.24,22.24,0,0,1,3.8,1.09A5.29,5.29,0,0,1,149.44,41a4.35,4.35,0,0,1,.71,2.45,4.7,4.7,0,0,1-.78,2.58,5.22,5.22,0,0,1-2.26,1.89,7.83,7.83,0,0,1-3.31.67,9.75,9.75,0,0,1-3.91-.68,5.45,5.45,0,0,1-2.47-2A5.77,5.77,0,0,1,136.48,42.77Z"/><path class="cls-9" d="M153.33,48.29V31.11h2.27v7h8.93v-7h2.27V48.29h-2.27v-8.1H155.6v8.1Z"/><path class="cls-9" d="M168.7,48.29l6.6-17.18h2.45l7,17.18h-2.59l-2-5.2H173l-1.88,5.2Zm5-7.06h5.82l-1.79-4.75c-.55-1.45-.95-2.64-1.22-3.57a23,23,0,0,1-.92,3.29Z"/><path class="cls-9" d="M186.63,48.29V31.11h7.62a10.12,10.12,0,0,1,3.49.46,3.84,3.84,0,0,1,1.91,1.64,4.84,4.84,0,0,1,.72,2.59,4.32,4.32,0,0,1-1.19,3.08,6,6,0,0,1-3.65,1.59,6.16,6.16,0,0,1,1.37.86,11.91,11.91,0,0,1,1.88,2.28l3,4.68h-2.86l-2.27-3.58c-.66-1-1.21-1.82-1.64-2.36a5.14,5.14,0,0,0-1.16-1.15,3.47,3.47,0,0,0-1-.46,7.37,7.37,0,0,0-1.27-.08H188.9v7.63Zm2.27-9.6h4.89a7.5,7.5,0,0,0,2.44-.32,2.65,2.65,0,0,0,1.34-1A2.82,2.82,0,0,0,198,35.8a2.57,2.57,0,0,0-.88-2,4.16,4.16,0,0,0-2.8-.78H188.9Z"/><path class="cls-9" d="M204,48.29V31.11H216.4v2H206.25V38.4h9.5v2h-9.5v5.85H216.8v2Z"/></g><g class="cls-8"><path class="cls-9" d="M141.57,75.22,137,58.76h2.45l2.92,11.11c0,.17.11.43.18.75s.15.67.23,1,.15.67.19.94h.17c.05-.21.09-.44.13-.7s.09-.51.15-.76.11-.5.15-.72.08-.4.1-.53l2.74-11.11h2.95l2.73,11.11c0,.17.11.43.18.75s.15.67.22,1l.18.94h.17c0-.21.09-.44.14-.68s.11-.5.17-.76.12-.5.18-.72.1-.41.13-.55l3-11.11h2.16L154,75.22h-2.74L148.39,64c0-.24-.11-.53-.17-.85s-.13-.67-.19-1-.12-.66-.17-.92h-.14c0,.28-.08.59-.15.94s-.13.69-.2,1-.13.61-.18.82L144.4,75.22Z"/><path class="cls-9" d="M160.94,75.22V58.76h2.28V75.22Z"/><path class="cls-9" d="M167.35,75.22V58.76h2.21l8,10.85a5.1,5.1,0,0,1,.31.43c.13.19.25.38.38.56s.24.35.32.49h.09V58.76h2.23V75.22H178.8l-8.09-11-.49-.74-.54-.77h-.12V75.22Z"/><path class="cls-9" d="M185,75.22V58.76h6.14a10.19,10.19,0,0,1,4.42.86,6.06,6.06,0,0,1,2.8,2.68,9.87,9.87,0,0,1,1,4.69,9.78,9.78,0,0,1-1,4.65,6.12,6.12,0,0,1-2.8,2.71,10.19,10.19,0,0,1-4.42.87Zm2.28-2h3.82a7.75,7.75,0,0,0,2.45-.35,4.73,4.73,0,0,0,1.84-1.06A4.63,4.63,0,0,0,196.57,70a8.47,8.47,0,0,0,.39-2.73v-.48a8.64,8.64,0,0,0-.39-2.77,4.5,4.5,0,0,0-3-2.93,8.14,8.14,0,0,0-2.47-.35h-3.82Z"/></g></svg>